<?xml version="1.0" encoding="UTF-8" standalone="no"?>
<svg
   xmlns:dc="http://purl.org/dc/elements/1.1/"
   xmlns:cc="http://creativecommons.org/ns#"
   xmlns:rdf="http://www.w3.org/1999/02/22-rdf-syntax-ns#"
   xmlns:svg="http://www.w3.org/2000/svg"
   xmlns="http://www.w3.org/2000/svg"
   xmlns:sodipodi="http://sodipodi.sourceforge.net/DTD/sodipodi-0.dtd"
   xmlns:inkscape="http://www.inkscape.org/namespaces/inkscape"
   inkscape:version="1.0 (4035a4fb49, 2020-05-01)"
   height="400"
   width="400"
   sodipodi:docname="twitter.svg"
   id="svg4"
   version="1.1"
   viewBox="0 0 400 400"
   xml:space="preserve"><metadata
   id="metadata10"><rdf:RDF><cc:Work
       rdf:about=""><dc:format>image/svg+xml</dc:format><dc:type
         rdf:resource="http://purl.org/dc/dcmitype/StillImage" /><dc:title></dc:title></cc:Work></rdf:RDF></metadata><defs
   id="defs8" /><sodipodi:namedview
   inkscape:current-layer="svg4"
   inkscape:window-maximized="1"
   inkscape:window-y="-8"
   inkscape:window-x="-8"
   inkscape:cy="95.265956"
   inkscape:cx="331.99655"
   inkscape:zoom="0.63213771"
   showgrid="false"
   id="namedview6"
   inkscape:window-height="705"
   inkscape:window-width="1366"
   inkscape:pageshadow="2"
   inkscape:pageopacity="0"
   guidetolerance="10"
   gridtolerance="10"
   objecttolerance="10"
   borderopacity="0.25"
   bordercolor="#000000"
   pagecolor="#ffffff" />
  <path
   style="stroke-width:1"
   id="path2"
   d="m 351.09689,122.36849 c 0.23156,3.34999 0.23156,6.69997 0.23156,10.08083 0,103.01595 -78.42372,221.82468 -221.8249,221.82468 v -0.0618 C 87.142392,354.274 45.661182,342.1399 10,319.26119 c 6.159659,0.74101 12.350193,1.11152 18.556165,1.12695 35.105423,0.0309 69.207393,-11.74811 96.825515,-33.4381 -33.360962,-0.63295 -62.615481,-22.38471 -72.835266,-54.14011 11.68637,2.25391 23.727808,1.79078 35.19805,-1.34308 C 51.373146,224.11849 25.206175,192.1624 25.206175,155.0501 v -0.98802 c 10.837294,6.03616 22.971358,9.38615 35.383302,9.75665 C 26.33313,140.92464 15.773715,95.352469 36.460288,59.722197 76.042656,108.42822 134.44363,138.03778 197.1363,141.17164 c -6.28316,-27.07777 2.30022,-55.452313 22.55454,-74.487029 31.40036,-29.516932 80.78569,-28.004034 110.30266,3.380862 17.46008,-3.442612 34.19459,-9.849269 49.50883,-18.926651 -5.82003,18.046701 -18.00041,33.376363 -34.27178,43.117568 15.45317,-1.821652 30.55129,-5.958963 44.76944,-12.272992 -10.46678,15.684729 -23.65061,29.347122 -38.9031,40.385092 z"
   fill="#1d9bf0" />
</svg>
