<?xml version="1.0" encoding="UTF-8" standalone="no"?>
<svg
   xmlns:dc="http://purl.org/dc/elements/1.1/"
   xmlns:cc="http://creativecommons.org/ns#"
   xmlns:rdf="http://www.w3.org/1999/02/22-rdf-syntax-ns#"
   xmlns:svg="http://www.w3.org/2000/svg"
   xmlns="http://www.w3.org/2000/svg"
   xmlns:sodipodi="http://sodipodi.sourceforge.net/DTD/sodipodi-0.dtd"
   xmlns:inkscape="http://www.inkscape.org/namespaces/inkscape"
   inkscape:version="1.0 (4035a4fb49, 2020-05-01)"
   height="400"
   width="400"
   sodipodi:docname="whatsapp.svg"
   id="svg22"
   version="1.1"
   viewBox="0 0 399.99999 400">
  <metadata
     id="metadata26">
    <rdf:RDF>
      <cc:Work
         rdf:about="">
        <dc:format>image/svg+xml</dc:format>
        <dc:type
           rdf:resource="http://purl.org/dc/dcmitype/StillImage" />
        <dc:title></dc:title>
      </cc:Work>
    </rdf:RDF>
  </metadata>
  <sodipodi:namedview
     inkscape:current-layer="svg22"
     inkscape:window-maximized="1"
     inkscape:window-y="-8"
     inkscape:window-x="-8"
     inkscape:cy="215.86537"
     inkscape:cx="290.96556"
     inkscape:zoom="1.0388458"
     showgrid="false"
     id="namedview24"
     inkscape:window-height="705"
     inkscape:window-width="1366"
     inkscape:pageshadow="2"
     inkscape:pageopacity="0"
     guidetolerance="10"
     gridtolerance="10"
     objecttolerance="10"
     borderopacity="0.25"
     bordercolor="#000000"
     pagecolor="#ffffff" />
  <defs
     id="defs10">
    <linearGradient
       gradientTransform="matrix(2.5278053,0,0,2.5170348,-19.594277,-20.391964)"
       gradientUnits="userSpaceOnUse"
       y2="137.092"
       y1="32.567001"
       x2="86.535004"
       x1="85.915001"
       id="b">
      <stop
         id="stop2"
         stop-color="#57d163"
         offset="0" />
      <stop
         id="stop4"
         stop-color="#23b33a"
         offset="1" />
    </linearGradient>
    <filter
       color-interpolation-filters="sRGB"
       y="-0.057"
       x="-0.057"
       height="1.114"
       width="1.115"
       id="a">
      <feGaussianBlur
         id="feGaussianBlur7"
         stdDeviation="3.531" />
    </filter>
  </defs>
  <path
     style="stroke-width:0.396446"
     transform="matrix(2.5278054,0,0,2.517035,-6.2021194,-7.5622672)"
     id="path12"
     filter="url(#a)"
     d="m 49.234061,133.35285 2.235,1.324 c 9.387,5.571 20.15,8.518 31.126,8.523 h 0.023 c 33.706999,0 61.138999,-27.426 61.152999,-61.134998 0.006,-16.335 -6.349,-31.696 -17.895,-43.251 a 60.75,60.75 0 0 0 -43.233999,-17.928 c -33.733,0 -61.166,27.423 -61.178,61.13 a 60.98,60.98 0 0 0 9.349,32.534998 l 1.455,2.312 -6.179,22.558 z m -40.8109997,23.544 10.4389997,-38.114 c -6.438,-11.154 -9.8249997,-23.807998 -9.8209997,-36.771998 0.017,-40.556 33.0209997,-73.55 73.5779997,-73.55 19.680999,0.01 38.153999,7.669 52.046999,21.572 13.893,13.903 21.537,32.383 21.53,52.037 -0.018,40.552998 -33.027,73.552998 -73.577999,73.552998 h -0.032 c -12.313,-0.005 -24.412,-3.094 -35.159,-8.954 z m 0,0"
     fill="#b3b3b3" />
  <path
     style="stroke-width:0.999999"
     id="path14"
     d="M 13.181248,385.44969 39.569006,289.5154 A 185.59148,184.80069 0 0 1 14.743431,196.95902 C 14.786404,94.87816 98.214093,11.831114 200.73429,11.831114 c 49.74973,0.02517 96.44589,19.30314 131.5647,54.297475 35.1188,34.994331 54.44133,81.509151 54.42364,130.978931 -0.0455,102.07332 -83.48583,185.13545 -185.99086,185.13545 h -0.0809 c -31.12486,-0.0126 -61.70879,-7.78769 -88.8751,-22.53752 z"
     fill="#ffffff" />
  <path
     style="stroke-width:0.999999"
     id="path16"
     d="m 200.78992,43.10527 c -85.27047,0 -154.615757,69.02465 -154.64609,153.86634 a 154.14556,153.48877 0 0 0 23.632452,81.89172 l 3.677957,5.8194 -15.619308,56.78177 58.508589,-15.27589 5.64965,3.33256 c 23.72848,14.02241 50.93528,21.4401 78.68046,21.45521 h 0.058 c 85.20474,0 154.55002,-69.03219 154.58288,-153.87893 A 153.56418,152.90986 0 0 0 310.07954,88.233188 153.56418,152.90986 0 0 0 200.78989,43.10527 Z"
     fill="url(#linearGradient1780)" />
  <path
     style="fill:url(#b);stroke-width:0.999999"
     id="path18"
     d="m 200.78992,43.10527 c -85.27047,0 -154.615757,69.02465 -154.64609,153.86634 a 154.14556,153.48877 0 0 0 23.632452,81.89172 l 3.677957,5.8219 -15.619308,56.77927 58.508589,-15.27589 5.64965,3.33256 c 23.72848,14.02241 50.93528,21.4376 78.68046,21.45267 h 0.058 c 85.20474,0 154.55002,-69.03218 154.58288,-153.8789 A 153.56418,152.90986 0 0 0 310.07954,88.23067 153.56418,152.90986 0 0 0 200.78989,43.10527 Z"
     fill="url(#b)" />
  <path
     style="stroke-width:0.999999"
     id="path20"
     d="m 154.24796,119.56271 c -3.48332,-7.70463 -7.14863,-7.86069 -10.45754,-7.99408 l -8.90798,-0.10825 c -3.0991,0 -8.13448,1.15784 -12.3913,5.78918 -4.25684,4.63135 -16.26644,15.8246 -16.26644,38.59119 0,22.76657 16.65319,44.76545 18.97371,47.85638 2.32053,3.09093 32.14863,51.29968 79.38573,69.8477 39.2543,15.41432 47.24216,12.34857 55.76591,11.57838 8.52375,-0.77023 27.49494,-11.19328 31.365,-21.99891 3.8701,-10.80563 3.87261,-20.06328 2.71236,-21.99887 -1.16028,-1.93559 -4.25937,-3.08588 -8.91052,-5.40157 -4.65117,-2.31566 -27.49495,-13.50892 -31.75429,-15.05439 -4.25936,-1.54545 -7.35591,-2.31314 -10.45753,2.3182 -3.10161,4.63136 -11.99697,15.04936 -14.70931,18.13776 -2.71234,3.0884 -5.41961,3.47601 -10.07077,1.16288 -4.65117,-2.31317 -19.61578,-7.20124 -37.37108,-22.96544 -13.81446,-12.2655 -23.13953,-27.41302 -25.8544,-32.04184 -2.71484,-4.62883 -0.28816,-7.13579 2.04247,-9.44141 2.08545,-2.07404 4.64611,-5.40406 6.97423,-8.10485 2.32811,-2.70077 3.09403,-4.63134 4.64105,-7.7147 1.54701,-3.08339 0.77603,-5.7917 -0.38676,-8.10487 -1.1628,-2.31315 -10.19211,-25.19802 -14.32254,-34.34997"
     fill-rule="evenodd"
     fill="#ffffff" />
</svg>
