<?xml version="1.0" encoding="UTF-8" standalone="no"?>
<svg
   xmlns:dc="http://purl.org/dc/elements/1.1/"
   xmlns:cc="http://creativecommons.org/ns#"
   xmlns:rdf="http://www.w3.org/1999/02/22-rdf-syntax-ns#"
   xmlns:svg="http://www.w3.org/2000/svg"
   xmlns="http://www.w3.org/2000/svg"
   xmlns:sodipodi="http://sodipodi.sourceforge.net/DTD/sodipodi-0.dtd"
   xmlns:inkscape="http://www.inkscape.org/namespaces/inkscape"
   width="40"
   height="20"
   viewBox="0 0 10.583333 5.2916668"
   version="1.1"
   id="svg8"
   inkscape:version="1.0 (4035a4fb49, 2020-05-01)"
   sodipodi:docname="elgin.svg">
  <defs
     id="defs2" />
  <sodipodi:namedview
     id="base"
     pagecolor="#ffffff"
     bordercolor="#666666"
     borderopacity="1.0"
     inkscape:pageopacity="0.0"
     inkscape:pageshadow="2"
     inkscape:zoom="14.708187"
     inkscape:cx="29.012286"
     inkscape:cy="6.4853749"
     inkscape:document-units="px"
     inkscape:current-layer="layer1"
     inkscape:document-rotation="0"
     showgrid="false"
     units="px"
     inkscape:window-width="1366"
     inkscape:window-height="705"
     inkscape:window-x="-8"
     inkscape:window-y="-8"
     inkscape:window-maximized="1" />
  <metadata
     id="metadata5">
    <rdf:RDF>
      <cc:Work
         rdf:about="">
        <dc:format>image/svg+xml</dc:format>
        <dc:type
           rdf:resource="http://purl.org/dc/dcmitype/StillImage" />
        <dc:title />
      </cc:Work>
    </rdf:RDF>
  </metadata>
  <g
     inkscape:label="Layer 1"
     inkscape:groupmode="layer"
     id="layer1">
    <path
       style="fill:#0069a5;fill-opacity:1;stroke-width:0.999995"
       d="m 5.3152691,3.8237893 c -0.00581,-3.932e-4 -0.025731,-0.00172 -0.044291,-0.00298 C 5.0373417,3.8051559 4.8232665,3.7429621 4.6566268,3.6423293 4.3839018,3.4776315 4.2296516,3.2170124 4.2070379,2.8827095 4.2041974,2.8406063 4.2041648,2.4859597 4.2070125,2.4468294 4.2238148,2.2156202 4.3068524,2.0235025 4.4557607,1.8713257 4.5643767,1.760327 4.6926164,1.6802049 4.8591469,1.6192981 4.9897287,1.571539 5.1332206,1.5425966 5.3110511,1.5281537 c 0.043904,-0.00356 0.2067759,-0.00489 0.2594139,-0.00212 0.1428734,0.00752 0.2770059,0.027214 0.4244125,0.062259 0.022311,0.00531 0.041055,0.00964 0.041655,0.00964 5.992e-4,0 0.00108,0.093483 0.00108,0.2077422 0,0.1142583 -7.117e-4,0.2077409 -0.00158,0.2077395 -0.014452,-2.77e-5 -0.069635,-0.00911 -0.1091422,-0.017985 -0.2196819,-0.04931 -0.3855751,-0.064796 -0.573664,-0.053552 -0.2698791,0.016132 -0.4551117,0.098152 -0.553913,0.2452734 -0.044065,0.065616 -0.069761,0.1374368 -0.083471,0.2333039 -0.00342,0.023942 -0.00378,0.046124 -0.00378,0.241487 0,0.2252759 1.182e-4,0.2287436 0.00965,0.2836683 0.041756,0.240461 0.1986645,0.3916843 0.4606642,0.4439703 0.071942,0.014355 0.1290199,0.019401 0.2408966,0.021288 0.111197,0.00188 0.1945644,-0.00258 0.2716042,-0.014487 l 0.016873,-0.0026 5.369e-4,-0.2219712 5.369e-4,-0.2219712 h -0.0928 -0.092809 V 2.7431522 2.5364646 h 0.2233373 c 0.138894,0 0.2315949,8.271e-4 0.245178,0.0022 0.074507,0.00748 0.1200788,0.02496 0.1512354,0.058047 0.017085,0.018144 0.026323,0.033336 0.034213,0.056264 0.014275,0.041485 0.01324,0.00155 0.014013,0.540694 l 6.986e-4,0.4874168 -0.038541,0.018026 c -0.04582,0.021434 -0.071457,0.030997 -0.1251897,0.046707 -0.1165999,0.034088 -0.2538541,0.060094 -0.3921075,0.07429 -0.027031,0.00276 -0.061648,0.00355 -0.1739974,0.00394 -0.077139,2.594e-4 -0.1449977,1.497e-4 -0.1507976,-2.434e-4 z M 1.6265283,3.8025975 C 1.4221374,3.7927024 1.2609751,3.7411235 1.1446088,3.6483638 1.1199751,3.628728 1.0802999,3.5893565 1.0623529,3.5667389 0.9900008,3.4755568 0.94759338,3.3609565 0.93592067,3.2250718 c -0.001447,-0.016775 -0.002188,-0.2781239 -0.002188,-0.7750787 -6.96e-6,-0.7464177 1.219e-5,-0.7498497 0.004277,-0.7676454 0.013581,-0.056651 0.0553784,-0.1002393 0.11526309,-0.1201998 0.040391,-0.013462 -0.00147,-0.012697 0.6939926,-0.012711 L 2.3805104,1.549424 V 1.7550582 1.9606911 H 1.9091421 1.4377678 V 2.1853058 2.4099204 H 1.7699443 2.1021209 V 2.6166086 2.8232964 H 1.7698334 1.4375462 l 7.6e-4,0.1945602 c 6.633e-4,0.1703479 0.00119,0.1969379 0.00427,0.2136636 0.011878,0.064555 0.039151,0.1059781 0.085881,0.1304525 0.016656,0.00874 0.03461,0.014825 0.061164,0.020787 0.019988,0.00448 0.020929,0.00451 0.405466,0.00518 l 0.3854304,6.862e-4 V 3.59632 3.8040078 L 2.0098494,3.8036089 C 1.8059828,3.8033898 1.6334882,3.8029344 1.6265283,3.8025975 Z M 3.479335,3.8016958 C 3.1073702,3.7795858 2.8715773,3.6018644 2.8150301,3.3009977 2.8026595,3.2351751 2.8036189,3.3075365 2.8029246,2.3893579 L 2.8022745,1.5494258 h 0.2520322 0.2520321 l 6.511e-4,0.8336049 c 6.004e-4,0.7688869 9.239e-4,0.8349196 0.00418,0.8505415 0.01836,0.088324 0.0595,0.1300549 0.147086,0.1492064 0.019337,0.00423 0.026976,0.00441 0.2186811,0.00515 l 0.1986452,7.826e-4 0.1894213,0.2018 C 4.1691842,3.7015014 4.2566427,3.7949405 4.2593558,3.798154 l 0.00494,0.00584 -0.3782379,-3.094e-4 C 3.6780135,3.8035275 3.4949948,3.8026276 3.479335,3.8016958 Z M 6.6302661,2.6767254 V 1.5494258 H 6.883355 7.136444 L 7.1359145,2.6761896 7.1353853,3.8029534 6.8828259,3.803489 6.6302661,3.804025 Z m 0.9237671,-8.3e-6 V 1.5494259 l 0.2314689,1.362e-4 0.2314695,1.362e-4 0.5219911,0.6697174 0.5219926,0.6697172 5.307e-4,-0.6698534 5.298e-4,-0.6698537 H 9.316154 9.5702923 V 2.6767169 3.8040078 L 9.3346054,3.8039699 9.0989181,3.803932 8.5800897,3.1285141 8.0612614,2.4530964 8.0607308,3.1285529 8.0602,3.8040092 H 7.8071171 7.5540332 V 2.6767186 Z"
       id="path36" />
  </g>
</svg>
