<?xml version="1.0" encoding="UTF-8" standalone="no"?>
<svg
   xmlns:dc="http://purl.org/dc/elements/1.1/"
   xmlns:cc="http://creativecommons.org/ns#"
   xmlns:rdf="http://www.w3.org/1999/02/22-rdf-syntax-ns#"
   xmlns:svg="http://www.w3.org/2000/svg"
   xmlns="http://www.w3.org/2000/svg"
   xmlns:sodipodi="http://sodipodi.sourceforge.net/DTD/sodipodi-0.dtd"
   xmlns:inkscape="http://www.inkscape.org/namespaces/inkscape"
   width="40"
   height="20"
   viewBox="0 0 10.583333 5.2916668"
   version="1.1"
   id="svg8"
   inkscape:version="1.0 (4035a4fb49, 2020-05-01)"
   sodipodi:docname="eztech.svg">
  <defs
     id="defs2" />
  <sodipodi:namedview
     id="base"
     pagecolor="#ffffff"
     bordercolor="#666666"
     borderopacity="1.0"
     inkscape:pageopacity="0.0"
     inkscape:pageshadow="2"
     inkscape:zoom="10.400259"
     inkscape:cx="24.387957"
     inkscape:cy="15.808622"
     inkscape:document-units="px"
     inkscape:current-layer="layer1"
     inkscape:document-rotation="0"
     showgrid="false"
     units="px"
     inkscape:window-width="1366"
     inkscape:window-height="705"
     inkscape:window-x="-8"
     inkscape:window-y="-8"
     inkscape:window-maximized="1" />
  <metadata
     id="metadata5">
    <rdf:RDF>
      <cc:Work
         rdf:about="">
        <dc:format>image/svg+xml</dc:format>
        <dc:type
           rdf:resource="http://purl.org/dc/dcmitype/StillImage" />
        <dc:title />
      </cc:Work>
    </rdf:RDF>
  </metadata>
  <g
     inkscape:label="Layer 1"
     inkscape:groupmode="layer"
     id="layer1">
    <path
       id="path22"
       style="fill:#ec1c24;fill-opacity:1;stroke-width:1"
       d="M 1.2553329,1.0365425 V 2.0264636 3.0163842 H 1.6966227 2.1379126 V 2.8136298 2.6108746 H 1.9590112 1.7801098 V 2.396193 2.1815113 H 1.9351574 2.0902057 V 1.9906833 1.7998554 H 1.9351574 1.7801098 V 1.6209541 1.4420526 H 1.9470846 2.1140589 V 1.2392975 1.0365425 H 1.6846955 Z M 5.4349621,1.2388781 C 5.0819074,1.2387354 4.7325952,1.2534536 4.5351905,1.2830929 4.0731426,1.3524636 3.4278427,1.5243123 3.3881256,1.5885762 c -0.01,0.016184 6.039e-4,0.020619 0.028932,0.012068 0.1784671,-0.05392 0.875258,-0.1329023 1.3890017,-0.1574242 1.8542001,-0.088504 3.5121116,0.4521608 3.9185923,1.2778405 0.07215,0.1465528 0.080316,0.183857 0.080316,0.3664217 0,0.176436 -0.00892,0.2205382 -0.0676,0.3344146 C 8.6391939,3.6124066 8.5221477,3.7447305 8.317603,3.8963102 8.0993045,4.0580837 7.8717497,4.1798753 7.5732527,4.2948318 7.4504125,4.3421395 7.3454482,4.3851512 7.339982,4.3903856 7.2949877,4.4334772 7.600515,4.3309594 7.9820237,4.1749586 8.4830793,3.9700744 8.8407221,3.7520181 9.073974,3.5091102 9.284073,3.2903139 9.3285944,3.1918194 9.3292342,2.9448253 9.3298935,2.6952911 9.2786182,2.5772919 9.0749984,2.3596227 8.6038352,1.8559468 7.5980265,1.4577776 6.3573286,1.2837918 6.1448369,1.2539932 5.7880162,1.239017 5.4349621,1.2388797 Z" />
    <path
       id="path24"
       d="M 4.6737588,3.9075028 C 4.5477539,3.8628653 4.4147785,3.7174791 4.3792398,3.585499 4.3618207,3.5207995 4.354865,3.3278707 4.3600639,3.0534062 4.367785,2.6459879 4.3714178,2.6172357 4.4275999,2.5191001 4.5104402,2.3743995 4.6499617,2.2973069 4.8556296,2.282591 5.1293514,2.2630098 5.3377054,2.3612124 5.430909,2.5537456 5.473625,2.6419856 5.488,2.7206755 5.49656,2.9131223 L 5.507519,3.1595206 H 5.1823679 4.8572189 l 3.245e-4,0.184865 c 4.239e-4,0.2421626 0.015668,0.2967178 0.080307,0.2874933 0.04551,-0.00649 0.051753,-0.026285 0.062488,-0.1980426 l 0.01192,-0.1908284 0.2444984,-0.0068 0.2444989,-0.0068 -1.443e-4,0.137992 c -7.12e-5,0.075901 -0.01139,0.1785432 -0.025153,0.2280996 -0.032559,0.1172567 -0.1524191,0.2520693 -0.2726765,0.3067011 -0.1178539,0.053542 -0.3858066,0.056223 -0.529543,0.00532 z M 4.9764891,2.7301573 c 0,-0.1242642 -0.00592,-0.143121 -0.044923,-0.143121 -0.050506,0 -0.073523,0.06119 -0.074017,0.1967915 -2.888e-4,0.079598 0.00624,0.089451 0.059308,0.089451 0.056984,0 0.059634,-0.00637 0.059634,-0.1431212 z M 5.9067762,3.9086567 C 5.6668103,3.8047157 5.6203381,3.669556 5.6210578,3.0776673 5.6215086,2.7090157 5.6280024,2.6325269 5.6659862,2.5488965 5.7942916,2.2663763 6.2587577,2.1882401 6.555178,2.3993101 c 0.09975,0.071028 0.1614564,0.2174073 0.1620949,0.3845177 l 5.226e-4,0.1371581 H 6.4803515 6.2429059 l -0.00706,-0.1610112 c -0.00626,-0.1427583 -0.012462,-0.1610114 -0.054761,-0.1610114 -0.045736,0 -0.047998,0.018238 -0.054712,0.44129 -0.00841,0.5297167 6.587e-4,0.6022863 0.073959,0.5918551 0.047679,-0.00679 0.053366,-0.024353 0.064238,-0.1982721 l 0.011933,-0.1908284 0.2231305,-0.00688 0.223131,-0.00688 -0.00845,0.2016489 C 6.7068451,3.6091929 6.6975918,3.6442804 6.6343096,3.7341066 6.527555,3.8856447 6.3935705,3.9469013 6.1713779,3.9457562 6.064162,3.9452072 5.9562009,3.9300664 5.9067774,3.9086617 Z M 3.5691318,3.1475941 V 2.3723546 H 3.4140842 3.2590364 V 2.1696001 1.9668451 h 0.573449 0.573449 l -0.00693,0.1967914 -0.00693,0.1967916 -0.1490846,0.00711 -0.1490842,0.00711 v 0.7740976 0.774101 H 3.8315204 3.5691318 Z M 6.8609166,2.944839 V 1.9668451 h 0.2504622 0.2504619 v 0.2001835 0.2001837 l 0.08853,-0.045137 c 0.1774466,-0.090468 0.3998503,-0.039966 0.5005479,0.1136633 0.038527,0.05878 0.043913,0.140155 0.051362,0.776378 l 0.00832,0.7107152 H 7.7458555 7.4811081 V 3.2549339 c 0,-0.6394134 -0.00192,-0.6678987 -0.045153,-0.6678987 -0.024836,0 -0.05167,0.01698 -0.059634,0.037731 -0.00797,0.020751 -0.014477,0.3213066 -0.014477,0.6678982 V 3.9228319 H 7.1113826 6.8609204 Z M 2.1856282,2.868919 c 0,-0.1161323 0.040559,-0.2809187 0.1908279,-0.7752647 0.1049558,-0.3452822 0.190828,-0.6331406 0.190828,-0.639686 0,-0.00654 -0.075138,-0.011908 -0.1669742,-0.011908 H 2.2333351 V 1.2393113 1.0365568 h 0.453217 0.4532164 v 0.2079659 c 0,0.1937925 -0.012191,0.2456172 -0.1789013,0.7604226 -0.098396,0.3038519 -0.1789014,0.5591244 -0.1789014,0.5672736 0,0.00815 0.080506,0.014818 0.1789014,0.014818 H 3.1397685 V 2.8017174 3.016399 H 2.6626983 2.1856282 Z"
       style="fill:#ffffff;stroke-width:1"
       sodipodi:nodetypes="cssssssccccssccccssccsscsssccscccccsscscccsscsscccccccccccccccccccccccssscccssssccccsssscccccsssscccccs" />
  </g>
</svg>
