<?xml version="1.0" encoding="UTF-8" standalone="no"?>
<svg
   xmlns:dc="http://purl.org/dc/elements/1.1/"
   xmlns:cc="http://creativecommons.org/ns#"
   xmlns:rdf="http://www.w3.org/1999/02/22-rdf-syntax-ns#"
   xmlns:svg="http://www.w3.org/2000/svg"
   xmlns="http://www.w3.org/2000/svg"
   xmlns:sodipodi="http://sodipodi.sourceforge.net/DTD/sodipodi-0.dtd"
   xmlns:inkscape="http://www.inkscape.org/namespaces/inkscape"
   width="40"
   height="20"
   viewBox="0 0 10.583333 5.2916668"
   version="1.1"
   id="svg8"
   inkscape:version="1.0 (4035a4fb49, 2020-05-01)"
   sodipodi:docname="hiper.svg">
  <defs
     id="defs2" />
  <sodipodi:namedview
     id="base"
     pagecolor="#ffffff"
     bordercolor="#666666"
     borderopacity="1.0"
     inkscape:pageopacity="0.0"
     inkscape:pageshadow="2"
     inkscape:zoom="8.1026683"
     inkscape:cx="21.581157"
     inkscape:cy="-4.887696"
     inkscape:document-units="px"
     inkscape:current-layer="layer1"
     inkscape:document-rotation="0"
     showgrid="false"
     units="px"
     inkscape:window-width="1366"
     inkscape:window-height="705"
     inkscape:window-x="-8"
     inkscape:window-y="-8"
     inkscape:window-maximized="1" />
  <metadata
     id="metadata5">
    <rdf:RDF>
      <cc:Work
         rdf:about="">
        <dc:format>image/svg+xml</dc:format>
        <dc:type
           rdf:resource="http://purl.org/dc/dcmitype/StillImage" />
        <dc:title />
      </cc:Work>
    </rdf:RDF>
  </metadata>
  <g
     inkscape:label="Layer 1"
     inkscape:groupmode="layer"
     id="layer1">
    <path
       style="fill:#ffffff;stroke-width:1"
       d="m 6.3962083,3.8939944 c -0.00593,-0.00593 -0.010782,-0.3758459 -0.010782,-0.822037 0,-0.6104258 0.00458,-0.8158348 0.018497,-0.8297521 0.019311,-0.019311 0.2510744,-0.026463 0.296217,-0.00914 0.013409,0.00514 0.02438,0.025801 0.02438,0.0459 V 2.315507 L 6.794835,2.2709145 C 6.9836276,2.1511914 7.2620312,2.1763224 7.4356549,2.3287661 7.503814,2.3886117 7.5784923,2.5278743 7.6034965,2.641766 7.6329253,2.7758094 7.6159689,3.0568951 7.5716899,3.1690183 7.5252258,3.2866751 7.4236739,3.397973 7.3133506,3.4521491 7.2348654,3.490691 7.2089505,3.4953107 7.0713208,3.4953002 6.9293024,3.4952893 6.9105239,3.49166 6.8324138,3.4491475 6.7857876,3.4237713 6.7426123,3.4007139 6.7364682,3.3979101 6.730324,3.395101 6.7233866,3.5060429 6.7210552,3.6444355 l -0.00424,0.2516222 -0.1549127,0.00436 c -0.085201,0.0024 -0.1597629,-4.914e-4 -0.1656923,-0.00642 z M 7.139775,3.1518081 C 7.161467,3.1357761 7.196491,3.0920611 7.217604,3.0546651 7.250303,2.9967491 7.255932,2.9672521 7.255587,2.8556569 7.2548517,2.6179529 7.176504,2.516733 6.9931654,2.5166202 c -0.071592,-4.62e-5 -0.1132258,0.0099 -0.1772535,0.042329 l -0.083684,0.042386 -0.00419,0.2466136 c -0.00473,0.2790201 -0.013507,0.2583349 0.1352017,0.3189473 0.085781,0.034964 0.2186146,0.027716 0.2765336,-0.015089 z M 8.2851335,3.4792018 C 7.9982513,3.401951 7.8342827,3.1723729 7.8342827,2.8479501 c 0,-0.2787579 0.1299578,-0.50267 0.3518075,-0.6061505 0.076123,-0.035508 0.1074731,-0.040828 0.2416065,-0.041006 0.2077046,-2.759e-4 0.2928493,0.02979 0.4093316,0.1445362 0.1125593,0.1108822 0.1528997,0.2134384 0.1644666,0.4181166 0.00663,0.1174137 0.00378,0.1504337 -0.014268,0.1654185 -0.016028,0.013302 -0.1322194,0.019917 -0.4013661,0.02285 l -0.3788073,0.00412 0.021051,0.061653 c 0.027103,0.079374 0.1098178,0.1551159 0.1945003,0.1781026 0.088898,0.024131 0.2455933,0.00961 0.3565873,-0.033043 0.076722,-0.029483 0.092382,-0.031286 0.1099236,-0.012653 0.022733,0.024146 0.085755,0.1875676 0.085755,0.2223664 0,0.030035 -0.101185,0.079653 -0.2191552,0.1074662 -0.121001,0.028528 -0.36368,0.028253 -0.4705823,-5.322e-4 z M 8.6573569,2.6437231 C 8.6327642,2.5377247 8.562664,2.4821794 8.4534817,2.4821794 c -0.1199699,0 -0.2006209,0.05816 -0.2271328,0.1637917 l -0.010068,0.040139 H 8.4417328 8.667191 Z M 4.2281004,3.4423775 c -0.010426,-0.019485 -0.015956,-0.3154486 -0.015956,-0.8543402 0,-0.7290186 0.00281,-0.8273324 0.024221,-0.8487476 0.030356,-0.030356 0.2825292,-0.034986 0.3117901,-0.00572 0.013037,0.013037 0.018497,0.1017278 0.018497,0.3005603 0,0.1551353 0.00412,0.2820643 0.00918,0.2820643 0.00505,0 0.028867,-0.014018 0.052928,-0.031151 0.074634,-0.053143 0.1666698,-0.076743 0.2992969,-0.076743 0.1625566,0 0.2571239,0.032011 0.3403074,0.1151945 0.1119477,0.1119478 0.119981,0.153713 0.1269695,0.6601017 0.00457,0.3309845 0.00141,0.4495934 -0.012418,0.4662539 -0.024916,0.030023 -0.2958023,0.032041 -0.3204139,0.00239 C 5.051878,3.4394262 5.0442946,3.2852656 5.0413498,3.0222452 5.0371099,2.643749 5.0344903,2.6097175 5.0072782,2.5796708 4.9359849,2.5009614 4.7845389,2.5006384 4.647502,2.5789033 l -0.080848,0.046175 v 0.4050594 c 0,0.2944951 -0.00505,0.410108 -0.018497,0.4235554 -0.011724,0.011724 -0.070781,0.018497 -0.161298,0.018497 -0.125409,0 -0.144745,-0.00363 -0.1587576,-0.029814 z m 1.4976356,0.011321 c -0.02655,-0.02655 -0.02655,-1.1849396 0,-1.2114895 0.02926,-0.02926 0.2814344,-0.02463 0.3117901,0.00572 0.021163,0.021163 0.024221,0.097637 0.024221,0.6057448 0,0.4317451 -0.00476,0.5862874 -0.018497,0.6000198 -0.011676,0.011676 -0.070216,0.018497 -0.1587577,0.018497 -0.088541,0 -0.1470817,-0.00682 -0.1587567,-0.018495 z m 3.5604844,0 c -0.024236,-0.024241 -0.02663,-1.1551645 -0.00254,-1.2001764 0.014013,-0.026182 0.033349,-0.029814 0.1587575,-0.029814 0.1526268,0 0.179794,0.011104 0.179794,0.073492 v 0.036501 l 0.04512,-0.032129 c 0.1160401,-0.082627 0.2905712,-0.1213417 0.3371311,-0.074782 0.02494,0.024944 0.02433,0.2302983 -7.71e-4,0.2618431 -0.010597,0.013312 -0.053946,0.028513 -0.096332,0.033781 -0.042386,0.00526 -0.1221509,0.032116 -0.1772536,0.059663 l -0.1001866,0.050085 -0.00411,0.3994876 c -0.00271,0.2631915 -0.00993,0.4064909 -0.021154,0.4200139 -0.022481,0.027088 -0.2916715,0.028804 -0.318445,0.00203 z M 5.8142333,2.0864616 C 5.7133784,2.0541334 5.7072394,2.0453117 5.7072394,1.932702 c 0,-0.1351493 0.023638,-0.160102 0.1588594,-0.1677018 0.076151,-0.00427 0.1057364,0.00108 0.1462541,0.026498 0.050093,0.031423 0.05073,0.033273 0.04624,0.1341191 -0.00395,0.088528 -0.00972,0.1060329 -0.043087,0.1303858 -0.045425,0.033161 -0.1455686,0.048316 -0.2012738,0.030459 z"
       id="path38"
       sodipodi:nodetypes="ssccscsssssscssccscssccccscccssssccccssssssccssccccscscssscsscccssscscsccssscsccssscssscsccscccscssccc" />
    <path
       id="path40"
       d="m 1.2837907,1.9578289 c 5.764e-4,-0.2061473 0.1191158,-0.4070608 0.2904618,-0.4923028 0.070666,-0.035156 0.078368,-0.035605 0.6110363,-0.035605 0.5355324,0 0.5400609,2.682e-4 0.6208411,0.036773 0.1600151,0.072312 0.2719667,0.2488225 0.2916751,0.4598758 l 0.00915,0.097936 -0.1525638,-0.00444 -0.1525636,-0.00444 -0.00954,-0.07816 C 2.7809305,1.8444651 2.7620227,1.8055015 2.7073661,1.7625085 2.6681839,1.7316872 2.6491325,1.730486 2.1993533,1.730486 c -0.3202329,0 -0.4795873,0.0056 -0.5063346,0.017783 -0.040382,0.0184 -0.1009798,0.1235697 -0.1013501,0.1758961 -1.233e-4,0.016398 -0.00439,0.045421 -0.00951,0.064494 -0.00881,0.03284 -0.016966,0.03468 -0.153923,0.03468 H 1.2836077 l 1.834e-4,-0.065507 z"
       style="fill:#a478b8;fill-opacity:1;stroke-width:1"
       sodipodi:nodetypes="sssscccccsscccsccs" />
    <path
       style="fill:#6a4b9d;fill-opacity:1;stroke-width:1"
       d="M 1.8484355,3.7489566 C 1.3868969,3.7171488 1.1310036,3.6353782 1.0489076,3.493468 1.0113697,3.4285803 0.96678362,3.2157749 0.93788168,2.9635502 0.9107545,2.7268149 0.88016429,2.2097149 0.89214045,2.1903371 c 0.004377,-0.00708 0.0907757,-0.012868 0.19200335,-0.012868 h 0.1840505 l 7.71e-5,0.042386 c 3.808e-4,0.225752 0.061029,0.8670103 0.094613,1.0003796 0.018395,0.073057 0.035277,0.082294 0.205877,0.1126673 0.3790816,0.06749 1.0732788,0.052197 1.3800272,-0.030402 0.055596,-0.01497 0.060022,-0.020642 0.075309,-0.096507 0.027062,-0.1342959 0.060281,-0.4391793 0.070079,-0.6431898 0.00509,-0.1059662 0.013038,-0.236017 0.017667,-0.2890003 l 0.00842,-0.096333 h 0.1861186 0.1861187 l -0.00969,0.2735871 c -0.018381,0.5188255 -0.086613,0.95723 -0.1660517,1.0668924 -0.046487,0.064173 -0.1796567,0.1367524 -0.3070424,0.1673423 -0.238522,0.057277 -0.8040641,0.088284 -1.16127,0.063666 z m -0.2529864,-1.1977094 0.00414,-0.3660671 0.2042269,-0.0043 0.2042269,-0.0043 V 2.5469423 2.9173102 H 1.799676 1.5913169 Z m 0.7825066,-0.0043 V 2.1765745 l 0.204227,0.0043 0.204227,0.0043 0.00413,0.3660672 0.00413,0.3660671 H 2.5863151 2.3779557 Z"
       id="path42"
       sodipodi:nodetypes="ssscsccccsscsccccsssscccccccccccccccccc" />
  </g>
</svg>
