<?xml version="1.0" encoding="UTF-8" standalone="no"?>
<svg
   xmlns:dc="http://purl.org/dc/elements/1.1/"
   xmlns:cc="http://creativecommons.org/ns#"
   xmlns:rdf="http://www.w3.org/1999/02/22-rdf-syntax-ns#"
   xmlns:svg="http://www.w3.org/2000/svg"
   xmlns="http://www.w3.org/2000/svg"
   xmlns:sodipodi="http://sodipodi.sourceforge.net/DTD/sodipodi-0.dtd"
   xmlns:inkscape="http://www.inkscape.org/namespaces/inkscape"
   width="40"
   height="20"
   viewBox="0 0 10.583333 5.2916668"
   version="1.1"
   id="svg8"
   inkscape:version="1.0 (4035a4fb49, 2020-05-01)"
   sodipodi:docname="ibyte.svg">
  <defs
     id="defs2" />
  <sodipodi:namedview
     id="base"
     pagecolor="#ffffff"
     bordercolor="#666666"
     borderopacity="1.0"
     inkscape:pageopacity="0.0"
     inkscape:pageshadow="2"
     inkscape:zoom="7.6702509"
     inkscape:cx="9.07741"
     inkscape:cy="-1.7995127"
     inkscape:document-units="px"
     inkscape:current-layer="layer1"
     inkscape:document-rotation="0"
     showgrid="false"
     units="px"
     inkscape:window-width="1366"
     inkscape:window-height="705"
     inkscape:window-x="-8"
     inkscape:window-y="-8"
     inkscape:window-maximized="1" />
  <metadata
     id="metadata5">
    <rdf:RDF>
      <cc:Work
         rdf:about="">
        <dc:format>image/svg+xml</dc:format>
        <dc:type
           rdf:resource="http://purl.org/dc/dcmitype/StillImage" />
        <dc:title />
      </cc:Work>
    </rdf:RDF>
  </metadata>
  <g
     inkscape:label="Layer 1"
     inkscape:groupmode="layer"
     id="layer1">
    <rect
       style="opacity:1;fill:#d50000;fill-opacity:1;stroke-width:0.0132292;stroke-linecap:round;stroke-linejoin:round"
       id="rect854"
       width="0.41103914"
       height="0.41103914"
       x="1.2273785"
       y="1.0546261"
       ry="0.039661672" />
    <path
       id="path852"
       d="M 4.0560793,4.1759789 V 3.9951528 H 4.436477 c 0.413949,0 0.4875678,-0.019804 0.4875678,-0.1311644 0,-0.051939 -0.011597,-0.056838 -0.1564564,-0.066062 C 4.5794704,3.7859481 4.4999637,3.7362171 4.4256189,3.5840271 4.3650357,3.4600075 4.0414005,1.8982672 4.0640516,1.8392396 c 0.011621,-0.03027 0.053222,-0.038034 0.2022349,-0.037741 0.1031863,2.042e-4 0.1998915,0.00834 0.214902,0.018083 0.01501,0.00975 0.094572,0.3486252 0.1768012,0.7530732 0.08223,0.4044481 0.1645937,0.7589486 0.1830299,0.7877791 0.044888,0.070196 0.1319027,0.096708 0.1655735,0.050446 C 5.0208641,3.3912718 5.1024386,3.029194 5.1878699,2.6062616 5.2733011,2.1833294 5.3546728,1.8293227 5.3686961,1.8195805 5.4132899,1.7885995 5.7597875,1.7983113 5.7856193,1.8312664 5.821237,1.8767053 5.3794679,4.022439 5.3057846,4.1618906 5.2093126,4.3444716 5.1626786,4.3568051 4.5687962,4.3568051 H 4.0560793 Z M 1.6001486,3.7692612 C 1.4800319,3.7257929 1.3319801,3.5911307 1.281076,3.479045 1.2404321,3.3895512 1.2362011,3.3088415 1.235721,2.6138712 l -5.322e-4,-0.747945 0.1949386,0.0017 0.2028788,-0.00624 0.0064,0.7100917 c 0.00622,0.6898882 0.00789,0.7116677 0.058451,0.7654974 l 0.052052,0.055406 h 0.8595602 0.85956 l 0.052422,-0.055803 c 0.049972,-0.053193 0.052422,-0.076916 0.052422,-0.5074091 0,-0.4483271 -4.326e-4,-0.4520408 -0.059661,-0.5112682 L 3.4545514,2.25824 2.941596,2.26475 2.4286406,2.27126 l -0.00664,0.3807001 -0.00664,0.3807 -0.1982915,-0.00699 -0.1982917,-0.00699 V 2.0542848 1.0898785 l 0.1989087,-0.007 0.1989088,-0.007 v 0.3727761 0.37277 l 0.5726161,0.00795 0.5726161,0.00795 0.132606,0.074887 c 0.092164,0.052049 0.154665,0.1102713 0.2049362,0.1909038 l 0.07233,0.116016 0.00768,0.5565112 c 0.00496,0.3606406 -0.00178,0.5884647 -0.019175,0.6473161 -0.037285,0.1261282 -0.158813,0.2560694 -0.3017614,0.3226371 -0.120083,0.05592 -0.125672,0.05621 -1.0489672,0.05462 -0.6650734,-0.00114 -0.9512281,-0.00992 -1.0093215,-0.030941 z m 4.8669459,-0.00542 C 6.3656966,3.7199122 6.2603689,3.6236561 6.2057578,3.5250047 6.1723279,3.4646154 6.1637274,3.3491833 6.1536625,2.8258102 L 6.1416075,2.1989461 6.0258007,2.1915451 C 5.9621062,2.1874798 5.9054653,2.1712004 5.8999307,2.15538 5.8943986,2.1395587 5.9031178,2.061518 5.9192976,1.9819548 5.9487057,1.8374 5.948798,1.837285 6.0451676,1.8252389 l 0.096441,-0.012056 0.00667,-0.3565208 0.00667,-0.3565211 0.2223694,0.00693 0.222369,0.00693 0.00666,0.3548879 0.00666,0.3548878 0.2947091,0.00676 0.2947089,0.00676 v 0.1687712 0.168771 l -0.2953493,0.00677 -0.2953495,0.00677 v 0.5741644 c 0,0.700999 -0.019757,0.661817 0.3400164,0.6743108 0.131245,0.00456 0.2393056,0.01812 0.2401345,0.030139 8.221e-4,0.012018 0.00151,0.081523 0.00151,0.1544568 0,0.072933 -6.923e-4,0.1434552 -0.00151,0.1567159 -0.00255,0.040988 -0.6255544,0.028671 -0.7248118,-0.014322 z m 1.1209151,-0.00652 C 7.4842617,3.7101747 7.3459477,3.5688354 7.3093346,3.4725363 7.296961,3.4399951 7.2868414,3.1435433 7.2868414,2.8137552 c 0,-0.3297882 0.010121,-0.6262398 0.022493,-0.6587813 0.034949,-0.091928 0.168213,-0.2312058 0.2717688,-0.2840358 0.087934,-0.044861 0.1349775,-0.047449 0.7413542,-0.040772 l 0.6474608,0.00712 0.1047279,0.075909 c 0.057601,0.04175 0.1294374,0.1226277 0.159634,0.1797281 0.051145,0.096727 0.054449,0.1285987 0.048276,0.4665695 l -0.00667,0.3627506 -0.5665889,0.00679 C 8.3977203,2.9327795 8.1178748,2.92974 8.0874656,2.9222947 8.035308,2.9095165 8.0325764,2.898886 8.0392448,2.7346711 l 0.00706,-0.1740779 0.3917901,-0.00662 0.3917898,-0.00663 v -0.130257 c 0,-0.1120038 -0.0089,-0.1372618 -0.063526,-0.1802289 C 8.7076744,2.1906982 8.6711753,2.18689 8.2874088,2.18689 c -0.3837663,0 -0.420266,0.00381 -0.4789513,0.049971 l -0.063523,0.04997 v 0.5249368 c 0,0.5029096 0.00212,0.5268639 0.050714,0.5708662 0.047097,0.042654 0.1021296,0.046432 0.7715253,0.052972 l 0.7208114,0.00704 v 0.1798088 0.179812 L 8.486319,3.8017392 C 7.7630662,3.8012634 7.6752045,3.7969157 7.5880096,3.7573044 Z"
       style="fill:#ffffff;stroke-width:1"
       sodipodi:nodetypes="ccsssscccsssssssscccsccccccccccssccccccccccccccccccccsscccssccccscccccccccccccsccsccccsscsccscccccccccsssccscscccccc" />
  </g>
</svg>
