<?xml version="1.0" encoding="UTF-8" standalone="no"?>
<svg
   xmlns:dc="http://purl.org/dc/elements/1.1/"
   xmlns:cc="http://creativecommons.org/ns#"
   xmlns:rdf="http://www.w3.org/1999/02/22-rdf-syntax-ns#"
   xmlns:svg="http://www.w3.org/2000/svg"
   xmlns="http://www.w3.org/2000/svg"
   xmlns:sodipodi="http://sodipodi.sourceforge.net/DTD/sodipodi-0.dtd"
   xmlns:inkscape="http://www.inkscape.org/namespaces/inkscape"
   width="40"
   height="20"
   viewBox="0 0 10.583333 5.2916668"
   version="1.1"
   id="svg8"
   inkscape:version="1.0 (4035a4fb49, 2020-05-01)"
   sodipodi:docname="softpostos.svg">
  <defs
     id="defs2" />
  <sodipodi:namedview
     id="base"
     pagecolor="#ffffff"
     bordercolor="#666666"
     borderopacity="1.0"
     inkscape:pageopacity="0.0"
     inkscape:pageshadow="2"
     inkscape:zoom="14.708187"
     inkscape:cx="20.548864"
     inkscape:cy="9.4679288"
     inkscape:document-units="px"
     inkscape:current-layer="layer1"
     inkscape:document-rotation="0"
     showgrid="false"
     units="px"
     inkscape:window-width="1366"
     inkscape:window-height="705"
     inkscape:window-x="-8"
     inkscape:window-y="-8"
     inkscape:window-maximized="1" />
  <metadata
     id="metadata5">
    <rdf:RDF>
      <cc:Work
         rdf:about="">
        <dc:format>image/svg+xml</dc:format>
        <dc:type
           rdf:resource="http://purl.org/dc/dcmitype/StillImage" />
        <dc:title />
      </cc:Work>
    </rdf:RDF>
  </metadata>
  <g
     inkscape:label="Layer 1"
     inkscape:groupmode="layer"
     id="layer1">
    <path
       d="M 4.0028645,2.6710533 A 1.6062697,1.5668461 0 0 1 2.3965949,4.2378994 1.6062697,1.5668461 0 0 1 0.7903252,2.6710533 1.6062697,1.5668461 0 0 1 2.3965949,1.1042073 1.6062697,1.5668461 0 0 1 4.0028645,2.6710533 Z"
       style="opacity:1;fill:#cd353a;fill-opacity:1;stroke:none;stroke-width:1.00012;stroke-linecap:round;stroke-linejoin:round"
       id="path26" />
    <path
       d="M 2.9497018,1.8898851 1.8160517,3.4881457 2.6585457,4.2168102 A 1.6062697,1.5668461 0 0 0 3.9943011,2.8283986 Z"
       style="opacity:0.2;fill:#1a1a1a;stroke:none;stroke-width:1.00012;stroke-linecap:round;stroke-linejoin:round"
       id="path24" />
    <path
       sodipodi:nodetypes="ccsccsc"
       id="path22"
       d="M 2.9497019,1.8898851 V 2.5171094 C 2.7006428,2.5183082 2.7420355,2.6438148 2.7072232,2.8727532 2.6730434,3.0975289 2.5014751,3.5479616 1.8160519,3.4881456 V 2.8671162 C 2.1391263,2.8786243 2.1209101,2.6405902 2.1234106,2.4104219 2.1260629,2.1668516 2.3483704,1.8290907 2.9497019,1.8898851 Z"
       style="opacity:1;fill:#ffffff;stroke:none;stroke-width:1.00012;stroke-linecap:round;stroke-linejoin:round" />
    <path
       d="M 3.8002508,1.3741671 A 0.12575618,0.12575618 0 0 1 3.6744954,1.499924 0.12575618,0.12575618 0 0 1 3.5487386,1.3741671 0.12575618,0.12575618 0 0 1 3.6744954,1.2484103 0.12575618,0.12575618 0 0 1 3.8002508,1.3741671 Z"
       style="opacity:1;fill:none;fill-opacity:1;stroke:#cc353a;stroke-width:0.0132292;stroke-linecap:round;stroke-linejoin:round;stroke-miterlimit:4;stroke-dasharray:none;stroke-opacity:1"
       id="path32" />
    <g
       style="font-stretch:condensed;font-size:0.133532px;line-height:1.5;font-family:Roboto;-inkscape-font-specification:'Roboto Condensed';opacity:1;fill:#cc353a;fill-opacity:1;stroke:none;stroke-width:0.00882853;stroke-linecap:round;stroke-linejoin:round;stroke-miterlimit:4;stroke-dasharray:none;stroke-opacity:1"
       id="text859"
       transform="matrix(1.6130003,0,0,1.3920548,-2.0045964,-0.48892144)"
       aria-label="R">
      <path
         id="path862"
         style="font-style:normal;font-variant:normal;font-weight:500;font-stretch:normal;font-family:Roboto;-inkscape-font-specification:'Roboto Medium';fill:#cc353a;fill-opacity:1;stroke:none;stroke-width:0.00882853"
         d="m 3.5010511,1.3412677 v 0.039381 h -0.015844 v -0.094933 h 0.032666 q 0.015844,0 0.024516,0.00717 0.00867,0.00717 0.00867,0.020473 0,0.00737 -0.00385,0.012714 -0.00378,0.00528 -0.011084,0.00848 0.00802,0.00254 0.011541,0.00828 0.00359,0.00574 0.00359,0.014214 v 0.00789 q 0,0.00417 0.00104,0.00815 0.00104,0.00398 0.00346,0.00606 v 0.0015 h -0.0163 q -0.00261,-0.00215 -0.00333,-0.00672 -7.172e-4,-0.00456 -7.172e-4,-0.00913 v -0.00763 q 0,-0.0073 -0.00424,-0.011606 -0.00417,-0.0043 -0.01141,-0.0043 z m 0,-0.012714 h 0.015974 q 0.00952,0 0.013888,-0.00365 0.00437,-0.00365 0.00437,-0.011149 0,-0.00717 -0.0043,-0.011215 -0.0043,-0.00411 -0.013105,-0.00411 h -0.016822 z" />
    </g>
    <g
       style="font-weight:500;font-size:1.36927px;line-height:1.5;font-family:Roboto;-inkscape-font-specification:'Roboto Medium';fill:#ffffff;fill-opacity:1;stroke-width:0.0132292;stroke-linecap:round;stroke-linejoin:round"
       id="text839"
       transform="scale(0.96606466,1.0351274)"
       aria-label="Softpostos">
      <path
         id="path853"
         style="font-style:normal;font-variant:normal;font-weight:normal;font-stretch:normal;font-family:NimbuSanTBlaCon;-inkscape-font-specification:NimbuSanTBlaCon;fill:#ffffff;fill-opacity:1;stroke-width:0.0132292"
         d="m 5.066581,2.0375674 v -0.069833 c 0,-0.1547275 -0.090372,-0.2286681 -0.2765925,-0.2286681 -0.1889592,0 -0.288916,0.086264 -0.288916,0.2478379 0,0.09448 0.041078,0.1602045 0.1410348,0.2327758 l 0.1547276,0.1095416 c 0.047924,0.034232 0.068464,0.067094 0.068464,0.1081724 0,0.052032 -0.030124,0.084895 -0.078048,0.084895 -0.049294,0 -0.080787,-0.031493 -0.080787,-0.082156 V 2.3483917 H 4.4873798 v 0.091741 c 0,0.1560968 0.1026953,0.2396223 0.2957624,0.2396223 0.2026519,0 0.3012393,-0.087633 0.3012393,-0.2642691 0,-0.1040646 -0.035601,-0.1643124 -0.1369269,-0.2355145 L 4.8064197,2.0786455 c -0.065725,-0.045186 -0.086264,-0.07394 -0.086264,-0.1177572 0,-0.038339 0.026016,-0.064356 0.064356,-0.064356 0.042447,0 0.062986,0.023278 0.062986,0.071202 v 0.069833 z" />
      <path
         id="path855"
         style="font-style:normal;font-variant:normal;font-weight:normal;font-stretch:normal;font-family:NimbuSanTBlaCon;-inkscape-font-specification:NimbuSanTBlaCon;fill:#ffffff;fill-opacity:1;stroke-width:0.0132292"
         d="m 5.6982638,2.1854486 c 0,-0.095849 -0.01917,-0.1437733 -0.069833,-0.1793744 -0.046555,-0.031493 -0.1109109,-0.046555 -0.1958056,-0.046555 -0.086264,0 -0.1506197,0.015062 -0.1971749,0.046555 -0.050663,0.035601 -0.069833,0.083525 -0.069833,0.1793744 v 0.2670076 c 0,0.095849 0.01917,0.1437734 0.069833,0.1780051 0.046555,0.032863 0.1122802,0.047925 0.1971749,0.047925 0.083526,0 0.1492504,-0.015062 0.1958056,-0.047925 0.050663,-0.034232 0.069833,-0.082156 0.069833,-0.1780051 z M 5.3751161,2.1744944 c 0,-0.065725 0.015062,-0.087633 0.057509,-0.087633 0.041078,0 0.05614,0.021908 0.05614,0.087633 v 0.288916 c 0,0.065725 -0.015062,0.087633 -0.05614,0.087633 -0.042447,0 -0.057509,-0.021908 -0.057509,-0.087633 z" />
      <path
         id="path857"
         style="font-style:normal;font-variant:normal;font-weight:normal;font-stretch:normal;font-family:NimbuSanTBlaCon;-inkscape-font-specification:NimbuSanTBlaCon;fill:#ffffff;fill-opacity:1;stroke-width:0.0132292"
         d="m 6.1269523,1.9718425 h -0.082156 v -0.024647 c 0,-0.043817 0.00822,-0.053401 0.045186,-0.053401 h 0.03697 V 1.7527593 H 5.9968717 c -0.1232343,0 -0.1615739,0.039709 -0.1615739,0.1643124 v 0.054771 h -0.083525 v 0.136927 h 0.083525 V 2.6660624 H 6.0447961 V 2.1087695 h 0.082156 z" />
      <path
         id="path859"
         style="font-style:normal;font-variant:normal;font-weight:normal;font-stretch:normal;font-family:NimbuSanTBlaCon;-inkscape-font-specification:NimbuSanTBlaCon;fill:#ffffff;fill-opacity:1;stroke-width:0.0132292"
         d="M 6.557716,1.9718425 H 6.4728213 V 1.8198535 H 6.263323 v 0.151989 H 6.177059 v 0.136927 h 0.086264 v 0.3888726 c 0,0.1396656 0.027385,0.1684203 0.1602045,0.1684203 h 0.13145 V 2.5250275 h -0.021908 c -0.047924,0 -0.060248,-0.016431 -0.060248,-0.080787 V 2.1087695 h 0.084895 z" />
      <path
         id="path861"
         style="font-style:normal;font-variant:normal;font-weight:normal;font-stretch:normal;font-family:NimbuSanTBlaCon;-inkscape-font-specification:NimbuSanTBlaCon;fill:#ffffff;fill-opacity:1;stroke-width:0.0132292"
         d="M 6.6408135,1.9718425 V 2.8536523 H 6.8503118 V 2.593491 c 0.045186,0.060248 0.091741,0.084895 0.1574661,0.084895 0.060248,0 0.1081723,-0.026016 0.1300806,-0.069833 0.01917,-0.041078 0.024647,-0.080787 0.024647,-0.1889592 V 2.2046184 c 0,-0.1081724 -0.00822,-0.151989 -0.035601,-0.1903285 -0.023277,-0.035601 -0.065725,-0.054771 -0.1163879,-0.054771 -0.065725,0 -0.1095416,0.01917 -0.1602046,0.071202 v -0.058879 z m 0.2094983,0.2204524 c 0,-0.061617 0.013693,-0.082156 0.052032,-0.082156 0.03697,0 0.050663,0.020539 0.050663,0.082156 v 0.253315 c 0,0.061617 -0.013693,0.082156 -0.050663,0.082156 -0.03834,0 -0.052032,-0.020539 -0.052032,-0.082156 z" />
      <path
         id="path863"
         style="font-style:normal;font-variant:normal;font-weight:normal;font-stretch:normal;font-family:NimbuSanTBlaCon;-inkscape-font-specification:NimbuSanTBlaCon;fill:#ffffff;fill-opacity:1;stroke-width:0.0132292"
         d="m 7.7842609,2.1854486 c 0,-0.095849 -0.01917,-0.1437733 -0.069833,-0.1793744 -0.046555,-0.031493 -0.1109109,-0.046555 -0.1958056,-0.046555 -0.086264,0 -0.1506197,0.015062 -0.1971749,0.046555 -0.050663,0.035601 -0.069833,0.083525 -0.069833,0.1793744 v 0.2670076 c 0,0.095849 0.01917,0.1437734 0.069833,0.1780051 0.046555,0.032863 0.1122801,0.047925 0.1971749,0.047925 0.083525,0 0.1492504,-0.015062 0.1958056,-0.047925 0.050663,-0.034232 0.069833,-0.082156 0.069833,-0.1780051 z M 7.4611132,2.1744944 c 0,-0.065725 0.015062,-0.087633 0.057509,-0.087633 0.041078,0 0.05614,0.021908 0.05614,0.087633 v 0.288916 c 0,0.065725 -0.015062,0.087633 -0.05614,0.087633 -0.042447,0 -0.057509,-0.021908 -0.057509,-0.087633 z" />
      <path
         id="path865"
         style="font-style:normal;font-variant:normal;font-weight:normal;font-stretch:normal;font-family:NimbuSanTBlaCon;-inkscape-font-specification:NimbuSanTBlaCon;fill:#ffffff;fill-opacity:1;stroke-width:0.0132292"
         d="m 8.3827389,2.1909257 v -0.030124 c 0,-0.1437733 -0.069833,-0.2012826 -0.24373,-0.2012826 -0.1766359,0 -0.2711155,0.067094 -0.2711155,0.193067 0,0.083525 0.035601,0.1341885 0.1355577,0.1930671 l 0.1273421,0.073941 c 0.045186,0.027385 0.060248,0.045186 0.060248,0.076679 0,0.032862 -0.023278,0.054771 -0.060248,0.054771 -0.047924,0 -0.065725,-0.023278 -0.065725,-0.089003 V 2.4264401 H 7.85557 v 0.035601 c 0,0.1533583 0.078048,0.2163447 0.2683769,0.2163447 0.1848514,0 0.2724847,-0.069833 0.2724847,-0.2136061 0,-0.083525 -0.032863,-0.1287114 -0.1300806,-0.1821129 L 8.1417474,2.212834 c -0.052032,-0.027385 -0.068464,-0.046555 -0.068464,-0.076679 0,-0.030124 0.020539,-0.049294 0.053401,-0.049294 0.03834,0 0.054771,0.021908 0.054771,0.07394 v 0.030124 z" />
      <path
         id="path867"
         style="font-style:normal;font-variant:normal;font-weight:normal;font-stretch:normal;font-family:NimbuSanTBlaCon;-inkscape-font-specification:NimbuSanTBlaCon;fill:#ffffff;fill-opacity:1;stroke-width:0.0132292"
         d="M 8.8335925,1.9718425 H 8.7486978 V 1.8198535 H 8.5391995 v 0.151989 h -0.086264 v 0.136927 h 0.086264 v 0.3888726 c 0,0.1396656 0.027385,0.1684203 0.1602046,0.1684203 H 8.830854 V 2.5250275 h -0.021908 c -0.047925,0 -0.060248,-0.016431 -0.060248,-0.080787 V 2.1087695 h 0.084895 z" />
      <path
         id="path869"
         style="font-style:normal;font-variant:normal;font-weight:normal;font-stretch:normal;font-family:NimbuSanTBlaCon;-inkscape-font-specification:NimbuSanTBlaCon;fill:#ffffff;fill-opacity:1;stroke-width:0.0132292"
         d="m 9.4450356,2.1854486 c 0,-0.095849 -0.01917,-0.1437733 -0.069833,-0.1793744 -0.046555,-0.031493 -0.1109109,-0.046555 -0.1958056,-0.046555 -0.086264,0 -0.1506197,0.015062 -0.1971749,0.046555 -0.050663,0.035601 -0.069833,0.083525 -0.069833,0.1793744 v 0.2670076 c 0,0.095849 0.01917,0.1437734 0.069833,0.1780051 0.046555,0.032863 0.1122801,0.047925 0.1971749,0.047925 0.083525,0 0.1492504,-0.015062 0.1958056,-0.047925 0.050663,-0.034232 0.069833,-0.082156 0.069833,-0.1780051 z M 9.1218879,2.1744944 c 0,-0.065725 0.015062,-0.087633 0.057509,-0.087633 0.041078,0 0.05614,0.021908 0.05614,0.087633 v 0.288916 c 0,0.065725 -0.015062,0.087633 -0.05614,0.087633 -0.042447,0 -0.057509,-0.021908 -0.057509,-0.087633 z" />
      <path
         id="path871"
         style="font-style:normal;font-variant:normal;font-weight:normal;font-stretch:normal;font-family:NimbuSanTBlaCon;-inkscape-font-specification:NimbuSanTBlaCon;fill:#ffffff;fill-opacity:1;stroke-width:0.0132292"
         d="m 10.043514,2.1909257 v -0.030124 c 0,-0.1437733 -0.069833,-0.2012826 -0.2437302,-0.2012826 -0.1766358,0 -0.2711155,0.067094 -0.2711155,0.193067 0,0.083525 0.035601,0.1341885 0.1355578,0.1930671 l 0.1273421,0.073941 c 0.045186,0.027385 0.060248,0.045186 0.060248,0.076679 0,0.032862 -0.023278,0.054771 -0.060248,0.054771 -0.047925,0 -0.065725,-0.023278 -0.065725,-0.089003 V 2.4264401 H 9.5163449 v 0.035601 c 0,0.1533583 0.078048,0.2163447 0.2683769,0.2163447 0.1848515,0 0.2724852,-0.069833 0.2724852,-0.2136061 0,-0.083525 -0.03286,-0.1287114 -0.1300811,-0.1821129 L 9.8025223,2.212834 c -0.052032,-0.027385 -0.068464,-0.046555 -0.068464,-0.076679 0,-0.030124 0.020539,-0.049294 0.053402,-0.049294 0.038339,0 0.054771,0.021908 0.054771,0.07394 v 0.030124 z" />
    </g>
    <g
       style="font-weight:500;font-size:0.493748px;line-height:1.5;font-family:Roboto;-inkscape-font-specification:'Roboto Medium';fill:#ffffff;fill-opacity:1;stroke-width:0.0132292;stroke-linecap:round;stroke-linejoin:round"
       id="text849"
       transform="scale(0.84485569,1.1836341)"
       aria-label="Automação Consultoria Softwares">
      <path
         id="path874"
         style="font-style:normal;font-variant:normal;font-weight:normal;font-stretch:normal;font-family:NimbuSanTBlaCon;-inkscape-font-specification:NimbuSanTBlaCon;fill:#ffffff;fill-opacity:1;stroke-width:0.0132292"
         d="m 5.2677013,2.8155836 0.0079,0.051843 h 0.081962 L 5.2928824,2.5380972 H 5.1788266 l -0.065175,0.3293299 h 0.081468 l 0.0079,-0.051843 z M 5.2593076,2.75979 h -0.048881 l 0.0237,-0.1678743 z" />
      <path
         id="path876"
         style="font-style:normal;font-variant:normal;font-weight:normal;font-stretch:normal;font-family:NimbuSanTBlaCon;-inkscape-font-specification:NimbuSanTBlaCon;fill:#ffffff;fill-opacity:1;stroke-width:0.0132292"
         d="M 5.5746968,2.6170969 H 5.4991534 V 2.781515 c 0,0.023206 -0.00494,0.031106 -0.01975,0.031106 -0.015306,0 -0.020244,-0.0079 -0.020244,-0.031106 V 2.6170969 h -0.075544 v 0.1747868 c 0,0.033575 0.00296,0.046906 0.012344,0.060237 0.00938,0.012344 0.024687,0.01975 0.041475,0.01975 0.024194,0 0.039994,-0.0079 0.061718,-0.030119 v 0.025675 h 0.075543 z" />
      <path
         id="path878"
         style="font-style:normal;font-variant:normal;font-weight:normal;font-stretch:normal;font-family:NimbuSanTBlaCon;-inkscape-font-specification:NimbuSanTBlaCon;fill:#ffffff;fill-opacity:1;stroke-width:0.0132292"
         d="m 5.7364996,2.6170969 h -0.030612 v -0.054806 h -0.075543 v 0.054806 h -0.031106 v 0.049375 h 0.031106 v 0.1402244 c 0,0.050362 0.00987,0.060731 0.057768,0.060731 h 0.0474 v -0.050856 h -0.0079 c -0.017281,0 -0.021725,-0.00592 -0.021725,-0.029131 V 2.6664717 h 0.030612 z" />
      <path
         id="path880"
         style="font-style:normal;font-variant:normal;font-weight:normal;font-stretch:normal;font-family:NimbuSanTBlaCon;-inkscape-font-specification:NimbuSanTBlaCon;fill:#ffffff;fill-opacity:1;stroke-width:0.0132292"
         d="m 5.9569812,2.6941216 c 0,-0.034562 -0.00691,-0.051844 -0.025181,-0.064681 -0.016788,-0.011356 -0.039994,-0.016787 -0.070606,-0.016787 -0.031106,0 -0.054312,0.00543 -0.0711,0.016787 -0.018269,0.012837 -0.025181,0.030119 -0.025181,0.064681 v 0.096281 c 0,0.034562 0.00691,0.051844 0.025181,0.064187 0.016787,0.01185 0.040487,0.017281 0.0711,0.017281 0.030119,0 0.053819,-0.00543 0.070606,-0.017281 0.018269,-0.012344 0.025181,-0.029625 0.025181,-0.064187 z m -0.1165245,-0.00395 c 0,-0.0237 0.00543,-0.0316 0.020737,-0.0316 0.014812,0 0.020244,0.0079 0.020244,0.0316 v 0.1041808 c 0,0.0237 -0.00543,0.0316 -0.020244,0.0316 -0.015306,0 -0.020737,-0.0079 -0.020737,-0.0316 z" />
      <path
         id="path882"
         style="font-style:normal;font-variant:normal;font-weight:normal;font-stretch:normal;font-family:NimbuSanTBlaCon;-inkscape-font-specification:NimbuSanTBlaCon;fill:#ffffff;fill-opacity:1;stroke-width:0.0132292"
         d="m 5.9940509,2.6170969 v 0.2503302 h 0.075543 V 2.704984 c 0,-0.0237 0.00543,-0.0316 0.020737,-0.0316 0.014812,0 0.020244,0.0079 0.020244,0.0316 v 0.1624431 h 0.075543 V 2.704984 c 0,-0.0237 0.00543,-0.0316 0.020738,-0.0316 0.014812,0 0.020244,0.0079 0.020244,0.0316 v 0.1624431 h 0.075544 V 2.6886903 c 0,-0.033081 -0.00296,-0.046412 -0.013331,-0.058756 -0.00988,-0.011356 -0.024687,-0.017281 -0.042462,-0.017281 -0.024194,0 -0.044931,0.010369 -0.064187,0.032587 -0.013825,-0.023206 -0.028637,-0.032587 -0.05135,-0.032587 -0.024687,0 -0.042956,0.00938 -0.061718,0.032587 v -0.028144 z" />
      <path
         id="path884"
         style="font-style:normal;font-variant:normal;font-weight:normal;font-stretch:normal;font-family:NimbuSanTBlaCon;-inkscape-font-specification:NimbuSanTBlaCon;fill:#ffffff;fill-opacity:1;stroke-width:0.0132292"
         d="m 6.4166915,2.6941216 v -0.010369 c 0,-0.020738 0.00395,-0.028637 0.015306,-0.028637 0.010862,0 0.016788,0.00691 0.016788,0.019256 0,0.013825 -0.00938,0.0237 -0.036044,0.036537 l -0.018763,0.00938 c -0.048387,0.0237 -0.055794,0.034069 -0.055794,0.079493 0,0.049375 0.018269,0.072087 0.058756,0.072087 0.022712,0 0.033081,-0.00494 0.051844,-0.025181 v 0.020737 H 6.521366 V 2.6941216 c 0,-0.034562 -0.00395,-0.050362 -0.015306,-0.061719 -0.013825,-0.013331 -0.037031,-0.01975 -0.072581,-0.01975 -0.061225,0 -0.09085,0.021725 -0.09085,0.06715 0,0.00247 4.937e-4,0.00889 9.874e-4,0.014319 z m 0.032094,0.040981 v 0.069125 c -0.0079,0.012344 -0.015306,0.018762 -0.022219,0.018762 -0.00889,0 -0.010862,-0.00593 -0.010862,-0.030612 0,-0.0316 0.00247,-0.037031 0.021725,-0.049869 z" />
      <path
         id="path886"
         style="font-style:normal;font-variant:normal;font-weight:normal;font-stretch:normal;font-family:NimbuSanTBlaCon;-inkscape-font-specification:NimbuSanTBlaCon;fill:#ffffff;fill-opacity:1;stroke-width:0.0132292"
         d="m 6.6696679,2.8713771 c 0.062212,-0.00444 0.083937,-0.025675 0.083937,-0.080481 v -0.026662 h -0.075543 v 0.033081 c 0,0.022712 -0.00543,0.030612 -0.021725,0.030612 -0.016294,0 -0.022219,-0.0079 -0.022219,-0.030612 V 2.6872091 c 0,-0.022712 0.00593,-0.030612 0.022219,-0.030612 0.016294,0 0.021725,0.0079 0.021725,0.030612 v 0.016787 h 0.075543 v -0.010369 c 0,-0.033081 -0.00642,-0.050362 -0.023206,-0.062212 -0.016787,-0.012344 -0.041969,-0.018762 -0.074062,-0.018762 -0.032587,0 -0.057275,0.00592 -0.074062,0.018269 -0.017281,0.012344 -0.0237,0.029625 -0.0237,0.062706 v 0.097268 c 0,0.054806 0.021725,0.075543 0.082456,0.080481 l -0.014812,0.032094 0.012837,0.01185 c 0.00543,-0.00247 0.00839,-0.00346 0.012344,-0.00346 0.00592,0 0.00988,0.00444 0.00988,0.010862 0,0.0079 -0.00444,0.012344 -0.012837,0.012344 -0.00741,0 -0.012837,-0.00197 -0.026169,-0.00839 l -0.00543,0.024194 c 0.014319,0.00642 0.024194,0.00889 0.037525,0.00889 0.024194,0 0.042462,-0.017281 0.042462,-0.0395 0,-0.018269 -0.013825,-0.032094 -0.032094,-0.032094 h -0.00346 z" />
      <path
         id="path888"
         style="font-style:normal;font-variant:normal;font-weight:normal;font-stretch:normal;font-family:NimbuSanTBlaCon;-inkscape-font-specification:NimbuSanTBlaCon;fill:#ffffff;fill-opacity:1;stroke-width:0.0132292"
         d="m 6.8583645,2.6941216 v -0.010369 c 0,-0.020738 0.00395,-0.028637 0.015306,-0.028637 0.010862,0 0.016787,0.00691 0.016787,0.019256 0,0.013825 -0.00938,0.0237 -0.036044,0.036537 l -0.018762,0.00938 c -0.048387,0.0237 -0.055794,0.034069 -0.055794,0.079493 0,0.049375 0.018269,0.072087 0.058756,0.072087 0.022712,0 0.033081,-0.00494 0.051844,-0.025181 v 0.020737 h 0.072581 V 2.6941216 c 0,-0.034562 -0.00395,-0.050362 -0.015306,-0.061719 -0.013825,-0.013331 -0.037031,-0.01975 -0.072581,-0.01975 -0.061225,0 -0.09085,0.021725 -0.09085,0.06715 0,0.00247 4.937e-4,0.00889 9.875e-4,0.014319 z m 0.032094,0.040981 v 0.069125 c -0.0079,0.012344 -0.015306,0.018762 -0.022219,0.018762 -0.00889,0 -0.010862,-0.00593 -0.010862,-0.030612 0,-0.0316 0.00247,-0.037031 0.021725,-0.049869 z m 0.035056,-0.2034241 c -0.00889,0.0079 -0.013331,0.010369 -0.019256,0.010369 -0.00494,0 -0.00938,-9.875e-4 -0.016294,-0.00395 -0.022712,-0.00889 -0.027156,-0.010369 -0.03555,-0.010369 -0.017281,0 -0.02765,0.00691 -0.049868,0.033575 l 0.018762,0.019256 c 0.0079,-0.00839 0.012837,-0.011356 0.020244,-0.011356 0.00444,0 0.00938,9.875e-4 0.013331,0.00346 0.019256,0.00988 0.026662,0.012344 0.034562,0.012344 0.017775,0 0.02765,-0.00642 0.053325,-0.033081 z" />
      <path
         id="path890"
         style="font-style:normal;font-variant:normal;font-weight:normal;font-stretch:normal;font-family:NimbuSanTBlaCon;-inkscape-font-specification:NimbuSanTBlaCon;fill:#ffffff;fill-opacity:1;stroke-width:0.0132292"
         d="m 7.1923156,2.6941216 c 0,-0.034562 -0.00691,-0.051844 -0.025181,-0.064681 -0.016788,-0.011356 -0.039994,-0.016787 -0.070606,-0.016787 -0.031106,0 -0.054312,0.00543 -0.0711,0.016787 -0.018269,0.012837 -0.025181,0.030119 -0.025181,0.064681 v 0.096281 c 0,0.034562 0.00691,0.051844 0.025181,0.064187 0.016787,0.01185 0.040487,0.017281 0.0711,0.017281 0.030119,0 0.053819,-0.00543 0.070606,-0.017281 0.018269,-0.012344 0.025181,-0.029625 0.025181,-0.064187 z m -0.1165245,-0.00395 c 0,-0.0237 0.00543,-0.0316 0.020737,-0.0316 0.014812,0 0.020244,0.0079 0.020244,0.0316 v 0.1041808 c 0,0.0237 -0.00543,0.0316 -0.020244,0.0316 -0.015306,0 -0.020737,-0.0079 -0.020737,-0.0316 z" />
      <path
         id="path892"
         style="font-style:normal;font-variant:normal;font-weight:normal;font-stretch:normal;font-family:NimbuSanTBlaCon;-inkscape-font-specification:NimbuSanTBlaCon;fill:#ffffff;fill-opacity:1;stroke-width:0.0132292"
         d="m 7.5362497,2.656103 v -0.023206 c 0,-0.040981 -0.00691,-0.061225 -0.025181,-0.077025 -0.018269,-0.015306 -0.045425,-0.022712 -0.081468,-0.022712 -0.036537,0 -0.063693,0.0079 -0.081962,0.024194 -0.018269,0.017281 -0.025181,0.038512 -0.025181,0.081962 v 0.1268933 c 0,0.042956 0.00691,0.064681 0.025181,0.081468 0.018269,0.016294 0.045425,0.024687 0.081962,0.024687 0.036044,0 0.0632,-0.00839 0.081468,-0.024687 0.018269,-0.016787 0.025181,-0.038512 0.025181,-0.081468 v -0.0316 h -0.079 V 2.77954 c 0,0.025181 -0.00839,0.036044 -0.02765,0.036044 -0.01975,0 -0.028144,-0.010862 -0.028144,-0.036044 V 2.6259843 c 0,-0.025181 0.00839,-0.036044 0.028144,-0.036044 0.019256,0 0.02765,0.010862 0.02765,0.036044 v 0.030119 z" />
      <path
         id="path894"
         style="font-style:normal;font-variant:normal;font-weight:normal;font-stretch:normal;font-family:NimbuSanTBlaCon;-inkscape-font-specification:NimbuSanTBlaCon;fill:#ffffff;fill-opacity:1;stroke-width:0.0132292"
         d="m 7.7622474,2.6941216 c 0,-0.034562 -0.00691,-0.051844 -0.025181,-0.064681 -0.016787,-0.011356 -0.039994,-0.016787 -0.070606,-0.016787 -0.031106,0 -0.054312,0.00543 -0.0711,0.016787 -0.018269,0.012837 -0.025181,0.030119 -0.025181,0.064681 v 0.096281 c 0,0.034562 0.00691,0.051844 0.025181,0.064187 0.016788,0.01185 0.040487,0.017281 0.0711,0.017281 0.030119,0 0.053819,-0.00543 0.070606,-0.017281 0.018269,-0.012344 0.025181,-0.029625 0.025181,-0.064187 z m -0.1165246,-0.00395 c 0,-0.0237 0.00543,-0.0316 0.020737,-0.0316 0.014812,0 0.020244,0.0079 0.020244,0.0316 v 0.1041808 c 0,0.0237 -0.00543,0.0316 -0.020244,0.0316 -0.015306,0 -0.020737,-0.0079 -0.020737,-0.0316 z" />
      <path
         id="path896"
         style="font-style:normal;font-variant:normal;font-weight:normal;font-stretch:normal;font-family:NimbuSanTBlaCon;-inkscape-font-specification:NimbuSanTBlaCon;fill:#ffffff;fill-opacity:1;stroke-width:0.0132292"
         d="m 7.7993171,2.6170969 v 0.2503302 h 0.075544 V 2.7123902 c 0,-0.0316 0.00395,-0.039006 0.020737,-0.039006 0.014812,0 0.018762,0.0079 0.018762,0.039006 v 0.1550369 h 0.075544 V 2.7025153 c 0,-0.040487 -0.00247,-0.054806 -0.011356,-0.068631 -0.00839,-0.013331 -0.024194,-0.021231 -0.041969,-0.021231 -0.024687,0 -0.042956,0.00938 -0.061719,0.031106 v -0.026662 z" />
      <path
         id="path898"
         style="font-style:normal;font-variant:normal;font-weight:normal;font-stretch:normal;font-family:NimbuSanTBlaCon;-inkscape-font-specification:NimbuSanTBlaCon;fill:#ffffff;fill-opacity:1;stroke-width:0.0132292"
         d="m 8.2104627,2.6960966 v -0.010862 c 0,-0.051844 -0.025181,-0.072581 -0.087887,-0.072581 -0.063693,0 -0.097762,0.024194 -0.097762,0.069618 0,0.030119 0.012837,0.048387 0.048881,0.069618 l 0.045918,0.026662 c 0.016294,0.00987 0.021725,0.016294 0.021725,0.02765 0,0.01185 -0.00839,0.01975 -0.021725,0.01975 -0.017281,0 -0.0237,-0.00839 -0.0237,-0.032094 v -0.012837 h -0.075543 v 0.012837 c 0,0.0553 0.028144,0.078012 0.096775,0.078012 0.066656,0 0.098256,-0.025181 0.098256,-0.077025 0,-0.030119 -0.01185,-0.046412 -0.046906,-0.065668 L 8.123563,2.7039965 c -0.018762,-0.00987 -0.024687,-0.016787 -0.024687,-0.02765 0,-0.010862 0.00741,-0.017775 0.019256,-0.017775 0.013825,0 0.01975,0.0079 0.01975,0.026662 v 0.010862 z" />
      <path
         id="path900"
         style="font-style:normal;font-variant:normal;font-weight:normal;font-stretch:normal;font-family:NimbuSanTBlaCon;-inkscape-font-specification:NimbuSanTBlaCon;fill:#ffffff;fill-opacity:1;stroke-width:0.0132292"
         d="M 8.4368924,2.6170969 H 8.361349 V 2.781515 c 0,0.023206 -0.00494,0.031106 -0.01975,0.031106 -0.015306,0 -0.020244,-0.0079 -0.020244,-0.031106 V 2.6170969 h -0.075544 v 0.1747868 c 0,0.033575 0.00296,0.046906 0.012344,0.060237 0.00938,0.012344 0.024687,0.01975 0.041475,0.01975 0.024194,0 0.039994,-0.0079 0.061719,-0.030119 v 0.025675 h 0.075543 z" />
      <path
         id="path902"
         style="font-style:normal;font-variant:normal;font-weight:normal;font-stretch:normal;font-family:NimbuSanTBlaCon;-inkscape-font-specification:NimbuSanTBlaCon;fill:#ffffff;fill-opacity:1;stroke-width:0.0132292"
         d="m 8.5537642,2.5380972 h -0.075544 v 0.3293299 h 0.075544 z" />
      <path
         id="path904"
         style="font-style:normal;font-variant:normal;font-weight:normal;font-stretch:normal;font-family:NimbuSanTBlaCon;-inkscape-font-specification:NimbuSanTBlaCon;fill:#ffffff;fill-opacity:1;stroke-width:0.0132292"
         d="m 8.7153816,2.6170969 h -0.030612 v -0.054806 h -0.075544 v 0.054806 h -0.031106 v 0.049375 h 0.031106 v 0.1402244 c 0,0.050362 0.00988,0.060731 0.057769,0.060731 h 0.0474 v -0.050856 h -0.0079 c -0.017281,0 -0.021725,-0.00592 -0.021725,-0.029131 V 2.6664717 h 0.030612 z" />
      <path
         id="path906"
         style="font-style:normal;font-variant:normal;font-weight:normal;font-stretch:normal;font-family:NimbuSanTBlaCon;-inkscape-font-specification:NimbuSanTBlaCon;fill:#ffffff;fill-opacity:1;stroke-width:0.0132292"
         d="m 8.9358633,2.6941216 c 0,-0.034562 -0.00691,-0.051844 -0.025181,-0.064681 -0.016787,-0.011356 -0.039994,-0.016787 -0.070606,-0.016787 -0.031106,0 -0.054312,0.00543 -0.0711,0.016787 -0.018269,0.012837 -0.025181,0.030119 -0.025181,0.064681 v 0.096281 c 0,0.034562 0.00691,0.051844 0.025181,0.064187 0.016787,0.01185 0.040487,0.017281 0.0711,0.017281 0.030119,0 0.053819,-0.00543 0.070606,-0.017281 0.018269,-0.012344 0.025181,-0.029625 0.025181,-0.064187 z m -0.1165245,-0.00395 c 0,-0.0237 0.00543,-0.0316 0.020737,-0.0316 0.014812,0 0.020244,0.0079 0.020244,0.0316 v 0.1041808 c 0,0.0237 -0.00543,0.0316 -0.020244,0.0316 -0.015306,0 -0.020737,-0.0079 -0.020737,-0.0316 z" />
      <path
         id="path908"
         style="font-style:normal;font-variant:normal;font-weight:normal;font-stretch:normal;font-family:NimbuSanTBlaCon;-inkscape-font-specification:NimbuSanTBlaCon;fill:#ffffff;fill-opacity:1;stroke-width:0.0132292"
         d="m 8.9729331,2.6170969 v 0.2503302 h 0.075543 V 2.7454714 c 0,-0.021231 0.00197,-0.029625 0.010369,-0.0395 0.00938,-0.011356 0.025181,-0.018269 0.042956,-0.018269 0.00296,0 0.00346,0 0.01185,4.938e-4 v -0.07505 c -0.02765,0 -0.040981,0.0079 -0.065175,0.040487 v -0.036537 z" />
      <path
         id="path910"
         style="font-style:normal;font-variant:normal;font-weight:normal;font-stretch:normal;font-family:NimbuSanTBlaCon;-inkscape-font-specification:NimbuSanTBlaCon;fill:#ffffff;fill-opacity:1;stroke-width:0.0132292"
         d="m 9.2191666,2.6170969 h -0.075544 v 0.2503302 h 0.075544 z m 0,-0.079 h -0.075544 v 0.055794 h 0.075544 z" />
      <path
         id="path912"
         style="font-style:normal;font-variant:normal;font-weight:normal;font-stretch:normal;font-family:NimbuSanTBlaCon;-inkscape-font-specification:NimbuSanTBlaCon;fill:#ffffff;fill-opacity:1;stroke-width:0.0132292"
         d="m 9.3328909,2.6941216 v -0.010369 c 0,-0.020738 0.00395,-0.028637 0.015306,-0.028637 0.010862,0 0.016787,0.00691 0.016787,0.019256 0,0.013825 -0.00938,0.0237 -0.036044,0.036537 l -0.018762,0.00938 c -0.048387,0.0237 -0.055794,0.034069 -0.055794,0.079493 0,0.049375 0.018269,0.072087 0.058756,0.072087 0.022712,0 0.033081,-0.00494 0.051844,-0.025181 v 0.020737 h 0.072581 V 2.6941216 c 0,-0.034562 -0.00395,-0.050362 -0.015306,-0.061719 -0.013825,-0.013331 -0.037031,-0.01975 -0.072581,-0.01975 -0.061225,0 -0.09085,0.021725 -0.09085,0.06715 0,0.00247 4.937e-4,0.00889 9.875e-4,0.014319 z m 0.032094,0.040981 v 0.069125 c -0.0079,0.012344 -0.015306,0.018762 -0.022219,0.018762 -0.00889,0 -0.010862,-0.00593 -0.010862,-0.030612 0,-0.0316 0.00247,-0.037031 0.021725,-0.049869 z" />
      <path
         id="path914"
         style="font-style:normal;font-variant:normal;font-weight:normal;font-stretch:normal;font-family:NimbuSanTBlaCon;-inkscape-font-specification:NimbuSanTBlaCon;fill:#ffffff;fill-opacity:1;stroke-width:0.0132292"
         d="m 9.7717632,2.6407968 v -0.025181 c 0,-0.055794 -0.032587,-0.082456 -0.099737,-0.082456 -0.068137,0 -0.1041809,0.031106 -0.1041809,0.089368 0,0.034069 0.014812,0.057769 0.050856,0.083937 l 0.055794,0.0395 c 0.017281,0.012344 0.024687,0.024194 0.024687,0.039006 0,0.018762 -0.010862,0.030612 -0.028144,0.030612 -0.017775,0 -0.029131,-0.011356 -0.029131,-0.029625 v -0.033081 h -0.079 v 0.033081 c 0,0.056287 0.037031,0.086406 0.1066495,0.086406 0.073075,0 0.1086246,-0.0316 0.1086246,-0.095293 0,-0.037525 -0.012837,-0.05925 -0.049375,-0.084925 l -0.050856,-0.036537 c -0.0237,-0.016294 -0.031106,-0.026662 -0.031106,-0.042462 0,-0.013825 0.00938,-0.023206 0.023206,-0.023206 0.015306,0 0.022712,0.00839 0.022712,0.025675 v 0.025181 z" />
      <path
         id="path916"
         style="font-style:normal;font-variant:normal;font-weight:normal;font-stretch:normal;font-family:NimbuSanTBlaCon;-inkscape-font-specification:NimbuSanTBlaCon;fill:#ffffff;fill-opacity:1;stroke-width:0.0132292"
         d="m 9.9995432,2.6941216 c 0,-0.034562 -0.00691,-0.051844 -0.025181,-0.064681 -0.016788,-0.011356 -0.039994,-0.016787 -0.070606,-0.016787 -0.031106,0 -0.054312,0.00543 -0.0711,0.016787 -0.018269,0.012837 -0.025181,0.030119 -0.025181,0.064681 v 0.096281 c 0,0.034562 0.00691,0.051844 0.025181,0.064187 0.016787,0.01185 0.040487,0.017281 0.0711,0.017281 0.030119,0 0.053818,-0.00543 0.070606,-0.017281 0.018269,-0.012344 0.025181,-0.029625 0.025181,-0.064187 z m -0.1165245,-0.00395 c 0,-0.0237 0.00543,-0.0316 0.020737,-0.0316 0.014812,0 0.020244,0.0079 0.020244,0.0316 v 0.1041808 c 0,0.0237 -0.00543,0.0316 -0.020244,0.0316 -0.015306,0 -0.020737,-0.0079 -0.020737,-0.0316 z" />
      <path
         id="path918"
         style="font-style:normal;font-variant:normal;font-weight:normal;font-stretch:normal;font-family:NimbuSanTBlaCon;-inkscape-font-specification:NimbuSanTBlaCon;fill:#ffffff;fill-opacity:1;stroke-width:0.0132292"
         d="M 10.154125,2.6170969 H 10.1245 v -0.00889 c 0,-0.0158 0.003,-0.019256 0.01629,-0.019256 h 0.01333 v -0.050856 h -0.04691 c -0.04444,0 -0.05826,0.014319 -0.05826,0.05925 v 0.01975 h -0.03012 v 0.049375 h 0.03012 V 2.8674271 H 10.1245 V 2.6664717 h 0.02963 z" />
      <path
         id="path920"
         style="font-style:normal;font-variant:normal;font-weight:normal;font-stretch:normal;font-family:NimbuSanTBlaCon;-inkscape-font-specification:NimbuSanTBlaCon;fill:#ffffff;fill-opacity:1;stroke-width:0.0132292"
         d="m 10.309455,2.6170969 h -0.03061 v -0.054806 h -0.07554 v 0.054806 h -0.03111 v 0.049375 h 0.03111 v 0.1402244 c 0,0.050362 0.0099,0.060731 0.05777,0.060731 h 0.0474 v -0.050856 h -0.0079 c -0.01728,0 -0.02172,-0.00592 -0.02172,-0.029131 V 2.6664717 h 0.03061 z" />
      <path
         id="path922"
         style="font-style:normal;font-variant:normal;font-weight:normal;font-stretch:normal;font-family:NimbuSanTBlaCon;-inkscape-font-specification:NimbuSanTBlaCon;fill:#ffffff;fill-opacity:1;stroke-width:0.0132292"
         d="m 10.464831,2.8674271 0.01827,-0.119487 0.02024,0.119487 h 0.09283 l 0.04394,-0.2503302 h -0.07258 l -0.01876,0.1856492 -0.0316,-0.1856492 h -0.07159 l -0.02617,0.1856492 -0.02222,-0.1856492 h -0.07604 l 0.05036,0.2503302 z" />
      <path
         id="path924"
         style="font-style:normal;font-variant:normal;font-weight:normal;font-stretch:normal;font-family:NimbuSanTBlaCon;-inkscape-font-specification:NimbuSanTBlaCon;fill:#ffffff;fill-opacity:1;stroke-width:0.0132292"
         d="m 10.736022,2.6941216 v -0.010369 c 0,-0.020738 0.0039,-0.028637 0.01531,-0.028637 0.01086,0 0.01679,0.00691 0.01679,0.019256 0,0.013825 -0.0094,0.0237 -0.03604,0.036537 l -0.01876,0.00938 c -0.04839,0.0237 -0.05579,0.034069 -0.05579,0.079493 0,0.049375 0.01827,0.072087 0.05876,0.072087 0.02271,0 0.03308,-0.00494 0.05184,-0.025181 v 0.020737 h 0.07258 V 2.6941216 c 0,-0.034562 -0.0039,-0.050362 -0.01531,-0.061719 -0.01383,-0.013331 -0.03703,-0.01975 -0.07258,-0.01975 -0.06123,0 -0.09085,0.021725 -0.09085,0.06715 0,0.00247 4.94e-4,0.00889 9.88e-4,0.014319 z m 0.03209,0.040981 v 0.069125 c -0.0079,0.012344 -0.01531,0.018762 -0.02222,0.018762 -0.0089,0 -0.01086,-0.00593 -0.01086,-0.030612 0,-0.0316 0.0025,-0.037031 0.02172,-0.049869 z" />
      <path
         id="path926"
         style="font-style:normal;font-variant:normal;font-weight:normal;font-stretch:normal;font-family:NimbuSanTBlaCon;-inkscape-font-specification:NimbuSanTBlaCon;fill:#ffffff;fill-opacity:1;stroke-width:0.0132292"
         d="m 10.882349,2.6170969 v 0.2503302 h 0.07554 V 2.7454714 c 0,-0.021231 0.002,-0.029625 0.01037,-0.0395 0.0094,-0.011356 0.02518,-0.018269 0.04296,-0.018269 0.003,0 0.0035,0 0.01185,4.938e-4 v -0.07505 c -0.02765,0 -0.04098,0.0079 -0.06517,0.040487 v -0.036537 z" />
      <path
         id="path928"
         style="font-style:normal;font-variant:normal;font-weight:normal;font-stretch:normal;font-family:NimbuSanTBlaCon;-inkscape-font-specification:NimbuSanTBlaCon;fill:#ffffff;fill-opacity:1;stroke-width:0.0132292"
         d="m 11.245061,2.7484338 v -0.044437 c 0,-0.037525 -0.0059,-0.055794 -0.02321,-0.070606 -0.01629,-0.013825 -0.04098,-0.020737 -0.07406,-0.020737 -0.07011,0 -0.09727,0.024687 -0.09727,0.088381 v 0.079987 c 0,0.036537 0.0059,0.0553 0.02321,0.069618 0.01629,0.014319 0.04098,0.021231 0.07406,0.021231 0.03259,0 0.05728,-0.00691 0.07406,-0.021231 0.01728,-0.013825 0.02321,-0.032587 0.02321,-0.069618 v -0.0079 h -0.07604 v 0.021725 c 0,0.022712 -0.0054,0.031106 -0.02123,0.031106 -0.01629,0 -0.02172,-0.0079 -0.02172,-0.031106 v -0.046412 z m -0.07604,-0.044437 h -0.04296 v -0.013825 c 0,-0.023206 0.0054,-0.031106 0.02172,-0.031106 0.0158,0 0.02123,0.0079 0.02123,0.031106 z" />
      <path
         id="path930"
         style="font-style:normal;font-variant:normal;font-weight:normal;font-stretch:normal;font-family:NimbuSanTBlaCon;-inkscape-font-specification:NimbuSanTBlaCon;fill:#ffffff;fill-opacity:1;stroke-width:0.0132292"
         d="m 11.461292,2.6960966 v -0.010862 c 0,-0.051844 -0.02518,-0.072581 -0.08789,-0.072581 -0.06369,0 -0.09776,0.024194 -0.09776,0.069618 0,0.030119 0.01284,0.048387 0.04888,0.069618 l 0.04592,0.026662 c 0.01629,0.00987 0.02172,0.016294 0.02172,0.02765 0,0.01185 -0.0084,0.01975 -0.02172,0.01975 -0.01728,0 -0.0237,-0.00839 -0.0237,-0.032094 v -0.012837 h -0.07554 v 0.012837 c 0,0.0553 0.02814,0.078012 0.09677,0.078012 0.06666,0 0.09826,-0.025181 0.09826,-0.077025 0,-0.030119 -0.01185,-0.046412 -0.04691,-0.065668 l -0.04493,-0.025181 c -0.01876,-0.00987 -0.02469,-0.016787 -0.02469,-0.02765 0,-0.010862 0.0074,-0.017775 0.01926,-0.017775 0.01382,0 0.01975,0.0079 0.01975,0.026662 v 0.010862 z" />
    </g>
    <path
       d="m 4.3147421,3.5594137 h 1.9491986 c 0,0 0,0 0,0 v 0.056537 c 0,0 0,0 0,0 H 4.3147421 c 0,0 0,0 0,0 v -0.056537 c 0,0 0,0 0,0 z"
       style="fill:#ffffff;fill-opacity:1;stroke-width:0.0132292;stroke-linecap:round;stroke-linejoin:round"
       id="rect851" />
  </g>
</svg>
