<?xml version="1.0" encoding="UTF-8" standalone="no"?>
<svg
   xmlns:dc="http://purl.org/dc/elements/1.1/"
   xmlns:cc="http://creativecommons.org/ns#"
   xmlns:rdf="http://www.w3.org/1999/02/22-rdf-syntax-ns#"
   xmlns:svg="http://www.w3.org/2000/svg"
   xmlns="http://www.w3.org/2000/svg"
   xmlns:xlink="http://www.w3.org/1999/xlink"
   xmlns:sodipodi="http://sodipodi.sourceforge.net/DTD/sodipodi-0.dtd"
   xmlns:inkscape="http://www.inkscape.org/namespaces/inkscape"
   width="40"
   height="20"
   viewBox="0 0 10.583333 5.2916668"
   version="1.1"
   id="svg8"
   inkscape:version="1.0 (4035a4fb49, 2020-05-01)"
   sodipodi:docname="acs.svg">
  <defs
     id="defs2">
    <filter
       height="1.0581174"
       y="-0.029058704"
       width="1.0177519"
       x="-0.0088759707"
       id="filter1057"
       style="color-interpolation-filters:sRGB"
       inkscape:collect="always">
      <feGaussianBlur
         id="feGaussianBlur1059"
         stdDeviation="0.45977527"
         inkscape:collect="always" />
    </filter>
    <radialGradient
       gradientUnits="userSpaceOnUse"
       gradientTransform="matrix(0,0.15580856,-2.8113486,-1.7104665e-5,1014.8244,837.43232)"
       r="62.16"
       fy="690.6167"
       fx="-926.73969"
       cy="690.6167"
       cx="-926.73969"
       id="radialGradient973"
       xlink:href="#linearGradient971"
       inkscape:collect="always" />
    <linearGradient
       id="linearGradient971"
       inkscape:collect="always">
      <stop
         id="stop967"
         offset="0"
         style="stop-color:#fcfbfd;stop-opacity:1" />
      <stop
         id="stop969"
         offset="1"
         style="stop-color:#dedbe2;stop-opacity:1" />
    </linearGradient>
    <linearGradient
       gradientUnits="userSpaceOnUse"
       y2="687.50482"
       x2="-961.95154"
       y1="700.64417"
       x1="-951.21796"
       id="linearGradient1074"
       xlink:href="#linearGradient1080"
       inkscape:collect="always" />
    <linearGradient
       inkscape:collect="always"
       id="linearGradient1080">
      <stop
         style="stop-color:#db0d12;stop-opacity:1"
         offset="0"
         id="stop1076" />
      <stop
         style="stop-color:#e26650;stop-opacity:1"
         offset="1"
         id="stop1078" />
    </linearGradient>
  </defs>
  <sodipodi:namedview
     id="base"
     pagecolor="#ffffff"
     bordercolor="#666666"
     borderopacity="1.0"
     inkscape:pageopacity="0.0"
     inkscape:pageshadow="2"
     inkscape:zoom="7.4484726"
     inkscape:cx="18.828099"
     inkscape:cy="2.3693099"
     inkscape:document-units="px"
     inkscape:current-layer="layer1"
     inkscape:document-rotation="0"
     showgrid="false"
     units="px"
     inkscape:window-width="1366"
     inkscape:window-height="705"
     inkscape:window-x="-8"
     inkscape:window-y="-8"
     inkscape:window-maximized="1" />
  <metadata
     id="metadata5">
    <rdf:RDF>
      <cc:Work
         rdf:about="">
        <dc:format>image/svg+xml</dc:format>
        <dc:type
           rdf:resource="http://purl.org/dc/dcmitype/StillImage" />
        <dc:title />
      </cc:Work>
    </rdf:RDF>
  </metadata>
  <g
     inkscape:label="Layer 1"
     inkscape:groupmode="layer"
     id="layer1">
    <g
       style="stroke-width:4.31837"
       transform="matrix(0.06126905,0,0,0.06126905,-4.4256143,-44.761916)"
       id="g1123">
      <g
         style="stroke-width:4.31837"
         id="g1087"
         transform="translate(1073.2009,80.260177)">
        <path
           d="m -955.84375,662.38867 -31.69531,57.59571 h 63.38867 l -2.78906,-5.07032 a 25.615191,25.615191 0 0 0 15.32812,5.09375 25.615191,25.615191 0 0 0 17.2793,-6.70508 v 6.43165 h 50.55664 v -50.48633 h -50.55664 v 6.23828 a 25.615191,25.615191 0 0 0 -17.2793,-6.70899 25.615191,25.615191 0 0 0 -25.61523,25.61524 25.615191,25.615191 0 0 0 0.0781,1.96875 z"
           style="opacity:1;fill:#343237;fill-opacity:1;stroke:none;stroke-width:4.31837;stroke-linecap:round"
           id="rect28" />
        <path
           d="m -954.82617,664.23633 -31.01953,55.74805 h 2.80859 l 29.60742,-53.21094 z m 2.30078,4.18164 -28.69336,51.56641 h 2.80859 l 27.28125,-49.0293 z m 40.35547,0.36719 a 25.615191,25.615191 0 0 0 -2.93946,0.23242 l -28.35742,50.9668 h 2.8086 z m 1.98633,0.0332 -28.47071,51.16602 h 2.8086 l 28.31054,-50.87891 a 25.615191,25.615191 0 0 0 -2.64843,-0.28711 z m 15.85156,0.42969 v 1.40429 l 0.78125,-1.40429 z m 2.96875,0 -2.96875,5.33593 v 0.90235 a 25.615191,25.615191 0 0 0 -0.33399,-0.30078 L -919,718.91797 a 25.615191,25.615191 0 0 0 2.4668,0.61328 l 27.97851,-50.2832 z m 4.4414,0 -28.11523,50.52929 a 25.615191,25.615191 0 0 0 2.6875,0.21875 l 28.23633,-50.74804 z m 4.8125,0 -28.22656,50.72851 a 25.615191,25.615191 0 0 0 2.99219,-0.32812 l 28.04297,-50.40039 z m 4.81055,0 -27.76953,49.91015 a 25.615191,25.615191 0 0 0 3.46875,-1.18945 l 27.10938,-48.7207 z m 4.8125,0 -26.34179,47.34179 a 25.615191,25.615191 0 0 0 4.49609,-3.28711 v 0.25391 l 24.6543,-44.30859 z m 4.44141,0 -26.28711,47.24414 v 3.24219 h 1.00391 l 28.09179,-50.48633 z m 4.81054,0 -28.09179,50.48633 h 2.80859 l 28.0918,-50.48633 z m 4.44141,0 -28.0918,50.48633 h 2.8086 l 28.09179,-50.48633 z m 5.08985,0 -28.0918,50.48633 h 2.80859 l 28.0918,-50.48633 z m 4.4414,0 -28.0918,50.48633 h 2.8086 l 28.0918,-50.48633 z m 4.71875,0 -28.0918,50.48633 h 2.8086 l 26.05078,-46.81836 v -3.66797 z m -72.375,0.0859 a 25.615191,25.615191 0 0 0 -3.33398,0.94532 l -27.65625,49.70508 h 2.80859 z m 11.02149,0.0898 -28.13282,50.56055 h 2.8086 l 27.75195,-49.87696 a 25.615191,25.615191 0 0 0 -2.42773,-0.68359 z m 3.93554,1.24219 -24.72461,44.43554 a 25.615191,25.615191 0 0 0 2.05664,1.34961 l 24.90039,-44.74805 a 25.615191,25.615191 0 0 0 -2.23242,-1.0371 z m -20.65625,0.59765 a 25.615191,25.615191 0 0 0 -4.21484,2.52735 l -10.31055,18.52929 a 25.615191,25.615191 0 0 0 -0.084,2.07227 25.615191,25.615191 0 0 0 0.0781,1.96875 l -1.11523,-2.02539 -14.27149,25.64844 h 2.8086 z m -27.70117,1.16602 -26.45898,47.55469 h 2.80859 l 25.04687,-45.01563 z m 52.11133,0.13867 -24.88281,44.72266 a 25.615191,25.615191 0 0 0 2.2539,0.99609 l 24.66406,-44.33008 a 25.615191,25.615191 0 0 0 -2.03515,-1.38867 z m -49.81055,4.04297 -24.13281,43.37305 h 2.80859 l 22.72071,-40.83594 z m 104.24219,0.23633 -23.86328,42.88672 h 2.80859 l 21.05469,-37.83985 z m -87.73242,1.41601 a 25.615191,25.615191 0 0 0 -4.30274,7.73242 z m -14.11719,2.69336 -21.71484,39.02735 h 2.80859 l 20.30273,-36.48829 z m 101.84961,4.00586 -19.34766,34.77149 h 2.8086 l 16.53906,-29.72266 z m -99.54883,0.17578 -19.38867,34.84571 h 2.80859 l 17.97657,-32.3086 z m 2.57617,4.68164 -16.7832,30.16407 h 2.80859 l 15.3711,-27.625 z m 96.97266,3.60938 -14.63672,26.30469 h 2.80859 l 11.82813,-21.25782 z m 0,8.64648 -9.82617,17.65821 h 2.80859 l 7.01758,-12.61133 z m 0,8.15039 -5.29102,9.50782 h 2.8086 l 2.48242,-4.46094 z m -82.98633,5.01172 -2.64062,4.7461 h 2.80859 l 1.22852,-2.20899 z m 2.39258,4.34961 -0.2207,0.39649 h 0.43945 z"
           style="opacity:1;fill:#96939a;fill-opacity:1;stroke:none;stroke-width:1.29552;stroke-linecap:round;stroke-miterlimit:4;stroke-dasharray:none"
           id="rect869" />
        <path
           id="path975"
           style="opacity:1;fill:#000000;fill-opacity:1;stroke:none;stroke-width:1.29552;stroke-linecap:round;stroke-miterlimit:4;stroke-dasharray:none;filter:url(#filter1057)"
           d="m -955.21304,675.09961 -20.34961,37.10937 h 6.74609 l 3.65821,-7.07812 20.60937,-0.0644 3.27149,6.41211 h 6.01953 z m 43.33398,0.66992 c -11.45343,0.12698 -18.64318,9.46353 -18.23046,19.23047 0.38666,9.15018 6.89914,17.78107 18.55273,18.06445 9.44431,0.22966 15.77539,-4.18554 15.77539,-4.18554 l -2.62305,-3.61914 c 0,0 -4.70294,3.66844 -12.31836,3.5039 -6.46481,-0.13968 -13.56239,-4.88805 -13.65039,-14.31836 -0.0813,-8.71048 6.36808,-14.90408 13.86914,-14.83008 9.06096,0.0893 12.22461,4.65039 12.22461,4.65039 l 2.49805,-3.79296 c 0,0 -4.7077,-4.2684 -14.97656,-4.68555 -0.37823,-0.0154 -0.75163,-0.0217 -1.1211,-0.0176 z m 42.61524,0.33008 c -7.7897,0.0691 -15.47182,2.18182 -15.54688,10.05664 -0.14397,15.10392 28.94424,5.4401 28.33008,16.94727 -0.53474,10.01916 -26.4088,4.61777 -26.89062,3.33593 l -2.55274,4.1875 c 0,0 34.25355,8.48353 34.67774,-8.30859 0.37387,-14.8001 -28.61613,-7.1362 -28.13477,-16.88086 0.46047,-9.32173 25.32378,-3.33442 25.7793,-2.87891 l 0.52344,-4.2539 c -0.49932,-0.2996 -8.39585,-2.27415 -16.18555,-2.20508 z" />
        <path
           d="m -955.59375,675.09961 -20.34961,37.10937 h 6.74609 l 3.65821,-7.07812 20.60937,-0.0644 3.27149,6.41211 h 6.01953 z m 43.33398,0.66992 c -11.45343,0.12698 -18.64318,9.46353 -18.23046,19.23047 0.38666,9.15018 6.89914,17.78107 18.55273,18.06445 9.44431,0.22966 15.77539,-4.18554 15.77539,-4.18554 l -2.62305,-3.61914 c 0,0 -4.70294,3.66844 -12.31836,3.5039 -6.46481,-0.13968 -13.56239,-4.88805 -13.65039,-14.31836 -0.0813,-8.71048 6.36808,-14.90408 13.86914,-14.83008 9.06096,0.0893 12.22461,4.65039 12.22461,4.65039 l 2.49805,-3.79296 c 0,0 -4.7077,-4.2684 -14.97656,-4.68555 -0.37823,-0.0154 -0.75163,-0.0217 -1.1211,-0.0176 z m 42.61524,0.33008 c -7.7897,0.0691 -15.47182,2.18182 -15.54688,10.05664 -0.14397,15.10392 28.94424,5.4401 28.33008,16.94727 -0.53474,10.01916 -26.4088,4.61777 -26.89062,3.33593 l -2.55274,4.1875 c 0,0 34.25355,8.48353 34.67774,-8.30859 0.37387,-14.8001 -28.61613,-7.1362 -28.13477,-16.88086 0.46047,-9.32173 25.32378,-3.33442 25.7793,-2.87891 l 0.52344,-4.2539 c -0.49932,-0.2996 -8.39585,-2.27415 -16.18555,-2.20508 z"
           style="opacity:1;fill:url(#radialGradient973);fill-opacity:1;stroke:none;stroke-width:1.29552;stroke-linecap:round;stroke-miterlimit:4;stroke-dasharray:none"
           id="path38" />
        <path
           d="m -958.39453,680.20703 -8.52539,15.54688 2.88476,5.32031 h 16.94727 z"
           style="opacity:1;fill:url(#linearGradient1074);fill-opacity:1;stroke:none;stroke-width:1.29552;stroke-linecap:round;stroke-miterlimit:4;stroke-dasharray:none"
           id="path867" />
      </g>
    </g>
  </g>
</svg>
