<?xml version="1.0" encoding="UTF-8" standalone="no"?>
<svg
   xmlns:dc="http://purl.org/dc/elements/1.1/"
   xmlns:cc="http://creativecommons.org/ns#"
   xmlns:rdf="http://www.w3.org/1999/02/22-rdf-syntax-ns#"
   xmlns:svg="http://www.w3.org/2000/svg"
   xmlns="http://www.w3.org/2000/svg"
   xmlns:sodipodi="http://sodipodi.sourceforge.net/DTD/sodipodi-0.dtd"
   xmlns:inkscape="http://www.inkscape.org/namespaces/inkscape"
   sodipodi:docname="gdoor.svg"
   inkscape:version="1.0 (4035a4fb49, 2020-05-01)"
   id="svg8"
   version="1.1"
   viewBox="0 0 10.583333 5.2916668"
   height="20"
   width="40">
  <defs
     id="defs2" />
  <sodipodi:namedview
     inkscape:window-maximized="1"
     inkscape:window-y="-8"
     inkscape:window-x="-8"
     inkscape:window-height="705"
     inkscape:window-width="1366"
     units="px"
     showgrid="false"
     inkscape:document-rotation="0"
     inkscape:current-layer="layer1"
     inkscape:document-units="px"
     inkscape:cy="16.574469"
     inkscape:cx="43.308218"
     inkscape:zoom="10.847373"
     inkscape:pageshadow="2"
     inkscape:pageopacity="0.0"
     borderopacity="1.0"
     bordercolor="#666666"
     pagecolor="#ffffff"
     id="base" />
  <metadata
     id="metadata5">
    <rdf:RDF>
      <cc:Work
         rdf:about="">
        <dc:format>image/svg+xml</dc:format>
        <dc:type
           rdf:resource="http://purl.org/dc/dcmitype/StillImage" />
        <dc:title />
      </cc:Work>
    </rdf:RDF>
  </metadata>
  <g
     id="layer1"
     inkscape:groupmode="layer"
     inkscape:label="Layer 1">
    <path
       style="fill:#f48221;fill-opacity:1;stroke-width:1"
       d="M 1.4885873,4.4047146 C 1.331157,4.3927172 1.1775138,4.3441848 1.0426732,4.2638607 0.96885867,4.2198896 0.89483935,4.1556078 0.89483935,4.1354749 c 0,-0.021598 0.26547275,-0.3170765 0.29059745,-0.3234424 0.00691,-0.00176 0.024767,0.00704 0.039663,0.01954 0.039193,0.03289 0.1450004,0.084487 0.2071856,0.1010352 0.1122718,0.029876 0.2630493,0.014128 0.3744068,-0.039104 0.1573497,-0.075219 0.2828341,-0.2466485 0.3058679,-0.4178589 l 0.00625,-0.046462 -0.05263,0.023269 C 1.9217822,3.5162927 1.8246181,3.5367831 1.6667056,3.5366945 1.4236344,3.5365583 1.2247054,3.4579556 1.0472031,3.2919109 0.93469957,3.1866694 0.85401752,3.0550612 0.80317524,2.893854 c -0.023629,-0.074921 -0.0255631,-0.094305 -0.0253478,-0.2540307 1.2819e-4,-0.095106 0.004523,-0.189408 0.009772,-0.2095595 0.005249,-0.020151 0.0132519,-0.050928 0.0177922,-0.068393 0.0276812,-0.1064894 0.1378324,-0.2794377 0.23945331,-0.3759676 0.1759467,-0.1671321 0.384556,-0.2512382 0.621859,-0.2507185 0.257141,5.628e-4 0.4647897,0.086565 0.6451556,0.2672038 0.085864,0.085994 0.1218331,0.1369982 0.1746415,0.2476427 0.064222,0.1345568 0.082588,0.222148 0.08235,0.392739 C 2.5686703,2.7728377 2.565711,2.7992195 2.542525,2.87726 2.491047,3.0505486 2.388083,3.2138287 2.2643998,3.3183112 c -0.035864,0.030298 -0.066709,0.058972 -0.068543,0.063724 -0.00186,0.00483 0.076604,0.00824 0.1781366,0.00772 0.099808,-5.042e-4 0.1865295,0.00221 0.1927125,0.00603 0.014223,0.00879 0.00398,0.1605778 -0.015693,0.2325791 -0.030555,0.1118378 -0.037961,0.131753 -0.080273,0.2159168 C 2.4121346,3.9608448 2.3583504,4.0343418 2.2659757,4.1240885 2.0556805,4.3284014 1.7822771,4.4270962 1.4885873,4.4047146 Z M 1.83618,3.0428792 C 1.9292558,3.0056184 2.0146401,2.9242525 2.0634203,2.8263331 2.100182,2.7525394 2.1013275,2.7471512 2.1014051,2.6476555 2.1015224,2.497772 2.0748527,2.4296565 1.9758122,2.326883 1.8878525,2.2356078 1.7679356,2.1912112 1.6373906,2.20159 1.4652877,2.2152729 1.3346561,2.3109605 1.2598929,2.4781068 c -0.021804,0.048746 -0.025616,0.071146 -0.025822,0.1517227 -2.481e-4,0.097206 0.00533,0.1208405 0.05012,0.2124471 0.05285,0.1080865 0.1806931,0.2040628 0.3003835,0.2255092 0.077524,0.013891 0.1800404,0.00374 0.2516056,-0.024907 z m 1.6303929,0.478032 C 3.3502042,3.495649 3.2489415,3.4490726 3.1163821,3.3598387 3.0175901,3.2933358 2.8811002,3.1154505 2.8289675,2.9852552 2.7749338,2.8503126 2.7661638,2.8019216 2.7660128,2.6378851 c -1.514e-4,-0.164156 0.01063,-0.2238435 0.063662,-0.3524472 0.085443,-0.2072009 0.281565,-0.4020378 0.4882268,-0.485027 0.1172172,-0.047071 0.2041866,-0.064048 0.3321941,-0.064848 0.1470608,-9.174e-4 0.2283568,0.013724 0.3528545,0.063552 0.051666,0.020678 0.096733,0.037596 0.100147,0.037596 0.00341,0 0.00621,-0.1863888 0.00621,-0.4141972 0,-0.3686805 0.0017,-0.4148489 0.015455,-0.4201276 0.00849,-0.00326 0.1043875,-0.00593 0.2130817,-0.00593 0.1440155,0 0.202216,0.00335 0.2145435,0.01237 0.015872,0.011612 0.016698,0.066978 0.013382,0.8964353 -0.00377,0.9431306 -0.00144,0.8953775 -0.050768,1.0403921 C 4.4755244,3.0617098 4.3638093,3.2288239 4.271555,3.3098242 4.22472,3.3509462 4.1344903,3.4115003 4.0751114,3.4416604 3.9849144,3.4874734 3.9452105,3.5014284 3.8338523,3.5264584 3.7708583,3.5406174 3.5413827,3.5371564 3.4665756,3.5209184 Z M 3.8028847,3.0521668 C 3.9697966,2.9954987 4.0841517,2.8481386 4.0964498,2.6738733 4.1063095,2.5341609 4.0682229,2.4250704 3.9761187,2.3292124 3.8167031,2.1632996 3.529079,2.156387 3.3684381,2.314608 c -0.062087,0.061151 -0.07817,0.082979 -0.107988,0.1465639 -0.023339,0.049769 -0.037706,0.065355 -0.037706,0.1767132 0,0.1199599 0.012714,0.1233356 0.046134,0.1899702 0.018714,0.037313 0.056086,0.090332 0.083048,0.1178226 0.052443,0.053469 0.1578515,0.1113825 0.2248904,0.123557 0.056323,0.010229 0.1712151,0.00156 0.2260682,-0.017068 z M 5.4380813,3.512714 C 5.3924046,3.5000004 5.344041,3.4863144 5.3306067,3.4823005 5.2280472,3.4516575 5.0506466,3.3227295 4.9628133,3.2150021 4.9145593,3.1558189 4.8323157,3.0263545 4.8323157,3.0095784 c 0,-0.00395 -0.00717,-0.021567 -0.015943,-0.039145 -0.035603,-0.071367 -0.06222,-0.2152015 -0.06222,-0.3362209 0,-0.1456319 0.02596,-0.255016 0.093041,-0.3920296 C 5.1468396,1.6301497 5.9788393,1.5535265 6.3855025,2.1005125 6.5558226,2.3296028 6.6071733,2.6489154 6.5169281,2.9177512 6.4160299,3.2183218 6.1918099,3.4275453 5.8780954,3.5138569 5.7589331,3.5466416 5.5581016,3.5461201 5.4380813,3.512714 Z M 5.7343277,3.0681263 C 5.8166369,3.054646 5.884428,3.0200376 5.9531444,2.9564193 6.0223962,2.8923042 6.0585348,2.8336355 6.0798894,2.7506555 6.1432722,2.5043609 5.9883098,2.25243 5.7454547,2.2069462 5.6457517,2.188273 5.5573117,2.2006191 5.4626608,2.246437 5.3936855,2.2798233 5.3720642,2.2963477 5.3306595,2.3473222 5.2459765,2.4515773 5.2200282,2.5250098 5.2222872,2.6540057 c 0.00289,0.1650406 0.1059985,0.3166905 0.2633861,0.3873869 0.075545,0.033935 0.1535109,0.042317 0.2486544,0.026734 z M 7.4293086,3.5133309 C 7.3321315,3.4876048 7.2055797,3.4296381 7.1278753,3.3752597 6.8766252,3.1994331 6.732701,2.8988559 6.7500982,2.5862953 6.7621139,2.3704201 6.8422577,2.1799812 6.986749,2.0239616 7.039548,1.9669501 7.1476741,1.875793 7.1624993,1.875793 c 0.00347,0 0.025481,-0.01319 0.048912,-0.029311 0.023432,-0.016121 0.04648,-0.029311 0.051219,-0.029311 0.00473,0 0.025931,-0.00827 0.047092,-0.018385 0.1365894,-0.065272 0.3885808,-0.083766 0.556306,-0.040828 0.1750113,0.044803 0.3244064,0.1326245 0.4451102,0.2616572 0.052201,0.055804 0.1459999,0.1855986 0.1459999,0.2020299 0,0.00294 0.010838,0.028553 0.024079,0.056912 0.053859,0.115331 0.068715,0.1951369 0.067798,0.3642149 -8.431e-4,0.1554911 -0.00694,0.1956332 -0.046051,0.3035789 C 8.4128968,3.194887 8.2056844,3.3982568 7.9490777,3.489967 7.7982851,3.543859 7.5814434,3.5536075 7.4293086,3.5133309 Z M 7.804408,3.048525 c 0.1099354,-0.041132 0.2221896,-0.1533923 0.2591851,-0.2591985 0.026037,-0.074467 0.03468,-0.1613023 0.022187,-0.2229451 -0.012754,-0.062933 -0.064792,-0.182527 -0.079421,-0.182527 -0.00464,0 -0.00842,-0.00626 -0.00842,-0.0139 0,-0.00764 -0.023537,-0.034008 -0.052306,-0.058586 C 7.7903018,2.1786723 7.5735815,2.1628585 7.4102899,2.2723058 c -0.066232,0.044393 -0.095601,0.074438 -0.1341468,0.137238 -0.043664,0.071138 -0.059619,0.1326781 -0.059741,0.2304174 -2.774e-4,0.2231831 0.1477229,0.3909652 0.3809403,0.4318574 0.049222,0.00864 0.1529186,-0.00303 0.2070656,-0.023294 z m 0.9477973,0.4667431 c -0.0088,-0.00881 -0.011724,-0.1329692 -0.011724,-0.4987029 0,-0.5072678 0.00292,-0.5510097 0.04544,-0.6812215 0.07253,-0.2221077 0.2520749,-0.4284135 0.4587421,-0.5271176 0.096347,-0.046015 0.097992,-0.046609 0.1895181,-0.068389 0.045677,-0.010873 0.1391063,-0.02274 0.2076213,-0.02638 l 0.1245728,-0.00662 v 0.2345765 0.2345763 l -0.1156169,0.00476 c -0.1077725,0.00444 -0.1205339,0.00714 -0.1880805,0.039738 -0.1131775,0.054629 -0.1884799,0.1368992 -0.231848,0.2533031 -0.020062,0.053848 -0.020812,0.071982 -0.022028,0.5324875 -6.927e-4,0.262208 -0.00509,0.4866343 -0.00976,0.4987252 -0.00845,0.021867 -0.00963,0.021983 -0.221806,0.021983 -0.1528803,0 -0.2166313,-0.00332 -0.2250343,-0.011725 z M 2.497187,2.0136907 C 2.4490146,2.0032818 2.4104021,1.9808466 2.3661955,1.9375799 2.3108608,1.8834219 2.2881327,1.8266894 2.2886004,1.7438924 2.2893782,1.6062385 2.3757271,1.5027575 2.5135715,1.4742861 c 0.051955,-0.010733 0.06484,-0.00982 0.1265128,0.0089 0.095723,0.029074 0.1584952,0.093873 0.1873945,0.1934383 0.045282,0.1560118 -0.073711,0.3261983 -0.2374729,0.3396362 -0.032243,0.00265 -0.074011,0.00149 -0.092819,-0.00258 z"
       id="path38"
       sodipodi:nodetypes="sssccssccsssssscssssscsscsccsscsssssscsccssssssssscsscsssscccsssssssscsssscsssssssssscscssssssssscssscscssssssssssscscsssccccccssscscccssccsccc" />
  </g>
</svg>
