<?xml version="1.0" encoding="UTF-8" standalone="no"?>
<svg
   xmlns:dc="http://purl.org/dc/elements/1.1/"
   xmlns:cc="http://creativecommons.org/ns#"
   xmlns:rdf="http://www.w3.org/1999/02/22-rdf-syntax-ns#"
   xmlns:svg="http://www.w3.org/2000/svg"
   xmlns="http://www.w3.org/2000/svg"
   xmlns:sodipodi="http://sodipodi.sourceforge.net/DTD/sodipodi-0.dtd"
   xmlns:inkscape="http://www.inkscape.org/namespaces/inkscape"
   sodipodi:docname="vnspam.svg"
   inkscape:version="1.0 (4035a4fb49, 2020-05-01)"
   id="svg8"
   version="1.1"
   viewBox="0 0 5.2916665 5.2916668"
   height="20"
   width="20">
  <defs
     id="defs2" />
  <sodipodi:namedview
     inkscape:window-maximized="1"
     inkscape:window-y="-8"
     inkscape:window-x="-8"
     inkscape:window-height="705"
     inkscape:window-width="1366"
     units="px"
     showgrid="false"
     inkscape:document-rotation="0"
     inkscape:current-layer="layer1"
     inkscape:document-units="px"
     inkscape:cy="9.8188878"
     inkscape:cx="5.8887168"
     inkscape:zoom="12.96337"
     inkscape:pageshadow="2"
     inkscape:pageopacity="0.0"
     borderopacity="1.0"
     bordercolor="#666666"
     pagecolor="#ffffff"
     id="base" />
  <metadata
     id="metadata5">
    <rdf:RDF>
      <cc:Work
         rdf:about="">
        <dc:format>image/svg+xml</dc:format>
        <dc:type
           rdf:resource="http://purl.org/dc/dcmitype/StillImage" />
        <dc:title />
      </cc:Work>
    </rdf:RDF>
  </metadata>
  <g
     id="layer1"
     inkscape:groupmode="layer"
     inkscape:label="Layer 1">
    <path
       id="path860"
       d="m 2.6367553,4.1326745 c -0.033229,-0.00428 -0.092502,-0.024331 -0.097937,-0.033125 -0.00181,-0.00293 0.072701,-0.082722 0.1655838,-0.1773113 l 0.1688783,-0.1719809 -0.0031,-0.064354 C 2.8624784,3.525786 2.7911042,3.4171537 2.673629,3.3867537 2.653296,3.3814837 2.615971,3.3781237 2.578015,3.3781237 H 2.515754 l -0.0097,-0.034904 C 2.4748411,3.2309495 2.394231,3.1515496 2.291177,3.131566 2.2603,3.125576 2.1583903,3.126326 2.1343669,3.132716 2.1293969,3.134046 2.1228729,3.120794 2.1145989,3.092574 2.0721067,2.9476137 1.9828534,2.8782648 1.8276761,2.8696413 l -0.063974,-0.00355 -0.01616,-0.046725 C 1.7188269,2.7363388 1.6697491,2.675846 1.6045698,2.6431395 1.5600355,2.6207926 1.5291365,2.6153918 1.461698,2.6181714 l -0.06136,0.00253 -0.046178,0.044072 C 1.3287626,2.6890166 1.2508359,2.7652721 1.1809907,2.8342337 L 1.0539994,2.9596183 0.96274599,2.8678887 C 0.82394545,2.72836 0.71356968,2.6447418 0.6149645,2.6044125 L 0.5710894,2.5864675 0.5745844,2.5646145 C 0.5790294,2.5368325 0.6082103,2.4662635 0.6483793,2.3861675 0.66563727,2.3517555 0.75385077,2.154857 0.84440819,1.9486146 0.93496615,1.7423722 1.0144418,1.5678985 1.021021,1.5608954 c 0.00658,-0.007 0.024975,-0.016836 0.04088,-0.021848 0.040303,-0.012705 0.082164,-0.00671 0.1270919,0.018204 0.019275,0.010684 0.06561,0.034547 0.1029664,0.053019 0.05828,0.02882 0.076932,0.035156 0.1314028,0.044636 0.089925,0.01565 0.1904879,0.02349 0.2427577,0.018926 0.027065,-0.00236 0.076848,-0.013701 0.1259104,-0.028674 0.1492323,-0.045545 0.3156921,-0.084873 0.4420892,-0.1044512 0.1614414,-0.025005 0.302916,-0.02114 0.3629711,0.00991 0.037327,0.019302 0.053596,0.00127 -0.311034,0.3448058 -0.3870166,0.3646298 -0.3549931,0.3256549 -0.3562192,0.4335455 -6.655e-4,0.058881 1.12e-4,0.063299 0.017311,0.09793 0.032974,0.066394 0.1302327,0.1673172 0.1882664,0.1953577 0.082233,0.039733 0.2847147,0.03926 0.3639844,-8.506e-4 0.1287994,-0.065172 0.3028568,-0.188567 0.4596622,-0.3258679 0.044097,-0.038612 0.081816,-0.070203 0.08382,-0.070203 0.00467,0 0.1213175,0.089393 0.2292992,0.175726 0.4102016,0.3279627 0.6652427,0.5838877 0.7203637,0.7228604 0.022467,0.056642 0.016808,0.1610635 -0.012132,0.2239108 -0.044316,0.096237 -0.1353391,0.1287628 -0.2944277,0.10521 l -0.022686,-0.00335 -0.00647,0.034832 c -0.00753,0.040486 -0.033211,0.09825 -0.057081,0.1283889 -0.022389,0.028268 -0.068354,0.059021 -0.1093148,0.073137 -0.042904,0.014786 -0.1329924,0.015934 -0.1922753,0.00245 -0.022411,-0.0051 -0.041983,-0.00803 -0.043494,-0.00652 -0.00151,0.00151 -0.00486,0.01749 -0.00744,0.035513 -0.012887,0.090124 -0.057494,0.1511244 -0.1373299,0.1877964 -0.025345,0.011646 -0.035953,0.012834 -0.1126316,0.012659 l -0.084652,-1.93e-4 -0.00685,0.019778 C 2.8930159,3.9743602 2.8541909,4.0339352 2.8218819,4.066244 2.7682849,4.119841 2.7072026,4.141759 2.6367468,4.132677 Z M 2.2593006,4.1149017 c -0.035617,-0.011802 -0.054327,-0.023482 -0.079158,-0.04942 -0.039329,-0.041083 -0.049472,-0.066709 -0.049459,-0.1249603 1.66e-5,-0.076029 0.00287,-0.080068 0.1932337,-0.2734204 0.089648,-0.091056 0.1711675,-0.1706067 0.1811539,-0.1767786 0.00998,-0.00617 0.034091,-0.015304 0.053567,-0.020293 0.080716,-0.020679 0.168515,0.022218 0.2045151,0.099921 0.025937,0.055983 0.021866,0.1230794 -0.010379,0.1710447 -0.00756,0.011247 -0.085886,0.093967 -0.1740486,0.1838147 -0.179586,0.1830164 -0.1913575,0.1918858 -0.2594848,0.1955113 -0.021749,0.00116 -0.046977,-0.00112 -0.05994,-0.00542 z M 1.8730503,3.8493626 C 1.8311123,3.8290996 1.7907723,3.7857836 1.7779853,3.747284 1.7662333,3.7119 1.7664093,3.659354 1.7784235,3.6232223 c 0.00762,-0.022956 0.024066,-0.043744 0.089241,-0.1128368 0.129796,-0.1375989 0.2664708,-0.269784 0.2937128,-0.2840649 0.021029,-0.011024 0.033489,-0.013202 0.075546,-0.013213 0.061975,-1.68e-5 0.091243,0.011756 0.1311799,0.052759 0.038036,0.039049 0.052592,0.078756 0.049357,0.1346395 -0.00391,0.067409 -0.01147,0.077718 -0.1932195,0.2630695 -0.1876815,0.1914046 -0.1951114,0.1969118 -0.2699156,0.200065 -0.043288,0.00183 -0.050598,5.406e-4 -0.081267,-0.014278 z M 1.5297896,3.6296752 C 1.4928826,3.6221852 1.4505916,3.5957162 1.424338,3.5636972 1.372877,3.5009352 1.370262,3.4125914 1.417938,3.3473437 c 0.009,-0.012311 0.087404,-0.093759 0.1742424,-0.1809943 0.1829701,-0.183806 0.1883425,-0.1876708 0.2614153,-0.1880591 0.055939,-2.97e-4 0.085697,0.010813 0.1243157,0.04641 0.028598,0.02636 0.047011,0.060556 0.056201,0.1043702 0.00556,0.026494 0.0051,0.037094 -0.0029,0.067601 -0.00522,0.019899 -0.015213,0.044547 -0.022205,0.054772 -0.00699,0.010227 -0.084484,0.092155 -0.1722016,0.1820687 C 1.7001311,3.5736074 1.672517,3.5992954 1.6437432,3.6131073 1.6060054,3.6312226 1.5660252,3.6370351 1.5297945,3.6296734 Z M 1.1390625,3.3554722 c -0.039261,-0.015475 -0.081489,-0.05628 -0.099909,-0.096542 -0.019533,-0.042694 -0.020377,-0.093216 -0.00236,-0.1410237 0.011716,-0.031073 0.025397,-0.046407 0.1835459,-0.205666 0.120018,-0.120861 0.1784877,-0.1758172 0.1964141,-0.1846115 0.018346,-0.009 0.038359,-0.013086 0.07116,-0.01453 0.040193,-0.00177 0.049703,-1.835e-4 0.079729,0.013291 0.040682,0.018257 0.074103,0.052341 0.094053,0.095917 0.012405,0.027094 0.013864,0.036593 0.011763,0.076595 -0.00191,0.036375 -0.00552,0.051344 -0.017764,0.073576 -0.0099,0.017984 -0.074469,0.08788 -0.1815449,0.1965238 -0.187216,0.1899598 -0.1925293,0.1939116 -0.264108,0.1964291 -0.031719,0.00111 -0.049057,-0.00131 -0.070985,-0.00996 z M 4.1591485,3.0387658 C 4.1215573,3.0240927 4.0988926,3.0075349 4.0688227,2.9727784 3.8572331,2.7282056 3.5485131,2.4332998 3.3393316,2.2759296 3.2168582,2.1837907 3.0619529,2.0900115 3.0484167,2.0998098 3.0444526,2.1026832 2.988671,2.149101 2.9244588,2.2029673 2.7936501,2.3127009 2.7019416,2.3834598 2.6139165,2.4425687 c -0.063404,0.042576 -0.1451114,0.084919 -0.1640556,0.085019 -0.00632,3.38e-5 -0.023849,0.00381 -0.038959,0.0084 -0.034418,0.010438 -0.1330402,0.010719 -0.1805982,5.16e-4 -0.038839,-0.00834 -0.062138,-0.024379 -0.1088774,-0.074976 -0.041751,-0.045196 -0.062804,-0.088983 -0.06547,-0.1361615 -0.00357,-0.063101 4.058e-4,-0.069126 0.096082,-0.1459373 0.2152106,-0.1727682 0.4860853,-0.4205865 0.647278,-0.5921823 0.091009,-0.096884 0.1035024,-0.1033299 0.1986586,-0.1025172 0.07999,6.817e-4 0.1420879,0.015045 0.2394603,0.055378 0.1358286,0.056261 0.2789835,0.099179 0.4124757,0.1236596 0.074842,0.013724 0.2209031,0.013619 0.2853969,-2.11e-4 0.1073457,-0.023012 0.2096321,-0.065853 0.2840918,-0.1189856 0.031738,-0.022647 0.03789,-0.025022 0.056244,-0.021703 0.032207,0.00583 0.060781,0.02778 0.076487,0.058773 0.00774,0.015272 0.014072,0.031 0.014072,0.034949 -3e-7,0.00395 0.094409,0.2038035 0.2098005,0.4441196 0.1153901,0.2403162 0.2113796,0.4448316 0.2133089,0.4544785 0.00897,0.044852 -0.020317,0.090531 -0.074469,0.1161488 -0.021053,0.00996 -0.1050047,0.076284 -0.2516644,0.1988215 -0.1210396,0.1011321 -0.2272437,0.189178 -0.236009,0.1956585 -0.016178,0.01196 -0.052726,0.018919 -0.068019,0.012949 z"
       style="fill:#808080;stroke-width:1" />
  </g>
</svg>
